<svg  id="bpm" width="454" height="76" viewBox="0 0 454 76" fill="none" xmlns="http://www.w3.org/2000/svg">
    <text id="bpm__text" fill="#0082A5" xml:space="preserve" style="white-space: pre" font-family="Merriweather" font-size="57.666" font-style="italic" font-weight="900" letter-spacing="0.01em"><tspan x="174.699" y="57.8781">UTI</tspan></text>
    <g id="bpm__line">
        <path id="bpm__line__end" d="M42.8946 42.9299L45.1207 41.398C44.6165 40.6653 43.7841 40.2276 42.8946 40.2276V42.9299ZM56.2932 62.3998L54.0672 63.9317C54.6192 64.7339 55.5602 65.1771 56.5303 65.0916C57.5004 65.0062 58.3494 64.4054 58.7528 63.519L56.2932 62.3998ZM73.2509 25.1348L75.8349 24.3442C75.5063 23.2701 74.5475 22.5113 73.4266 22.4382C72.3058 22.3652 71.2566 22.9932 70.7914 24.0155L73.2509 25.1348ZM87.2776 70.9831L84.6936 71.7736C85.0461 72.9257 86.1186 73.7052 87.3232 73.6849C88.5277 73.6646 89.5734 72.8494 89.8868 71.6861L87.2776 70.9831ZM96.6986 36.0209V33.3187C95.4769 33.3187 94.4072 34.1383 94.0894 35.3179L96.6986 36.0209ZM158.961 38.7232C160.454 38.7232 161.664 37.5134 161.664 36.0209C161.664 34.5285 160.454 33.3187 158.961 33.3187V38.7232ZM13.4492 40.2276C11.9568 40.2276 10.747 41.4375 10.747 42.9299C10.747 44.4223 11.9568 45.6321 13.4492 45.6321V40.2276ZM58.7528 63.519L75.7105 26.254L70.7914 24.0155L53.8337 61.2806L58.7528 63.519ZM70.6669 25.9253L84.6936 71.7736L89.8617 70.1925L75.8349 24.3442L70.6669 25.9253ZM89.8868 71.6861L99.3078 36.724L94.0894 35.3179L84.6685 70.28L89.8868 71.6861ZM96.6986 38.7232H158.961V33.3187H96.6986V38.7232ZM13.4492 45.6321H42.8946V40.2276H13.4492V45.6321ZM40.6686 44.4618L54.0672 63.9317L58.5193 60.8679L45.1207 41.398L40.6686 44.4618Z" fill="#CBCDCE"/>
        <path id="bpm__line__start" d="M297.184 35.9883H444.446" stroke="#CBCDCE" stroke-width="5.4045" stroke-linecap="round" stroke-linejoin="round"/>
    </g>
</svg>
