<svg xmlns="http://www.w3.org/2000/svg">
    <!-- 
    ///////////////////////////////////////////////////////////
    Indicators icons
    ///////////////////////////////////////////////////////////
    -->

    <symbol id="icon-Patients" viewBox="0 0 155 129">
        <path class="icon-people__line" d="M103.532 67.6095L90.7211 61.9157C89.816 61.5135 89.2317 60.6138 89.2317 59.6237V56.1057C93.5351 52.6768 96.3012 47.3965 96.3012 41.4792V36.527C97.7189 35.7436 98.6575 34.2298 98.6575 32.5343V32.0537C98.6575 21.743 90.269 13.3545 79.9584 13.3545H75.2457C64.935 13.3545 56.5465 21.743 56.5465 32.0537V36.4144C56.5465 37.9048 57.1879 39.2549 58.3058 40.1188C58.4954 40.2652 58.695 40.394 58.9029 40.5054V41.4789C58.9029 47.3962 61.6687 52.6765 65.9718 56.1051V59.6234C65.9718 60.6135 65.3871 61.5133 64.4824 61.9154L51.6713 67.6092C47.4758 69.4738 44.7646 73.6455 44.7646 78.2368V107.457C44.7646 108.674 45.7517 109.661 46.9693 109.661C48.1868 109.661 49.1739 108.674 49.1739 107.457V78.2371C49.1739 77.9816 49.1922 77.7291 49.2186 77.4787L55.1218 83.3818C56.0404 84.3007 56.5465 85.5221 56.5465 86.8216V107.457C56.5465 108.675 57.5336 109.662 58.7512 109.662C59.9687 109.662 60.9558 108.675 60.9558 107.457V86.8216C60.9558 84.3445 59.9914 82.0158 58.2397 80.2642L51.2022 73.2264C51.8363 72.5685 52.597 72.0232 53.4624 71.6384L66.0574 66.0407L75.3977 75.381V107.457C75.3977 108.674 76.3848 109.661 77.6023 109.661C78.8199 109.661 79.807 108.674 79.807 107.457V75.3813L89.1473 66.041L101.742 71.6384C102.607 72.0232 103.368 72.5685 104.002 73.2267L96.9647 80.2642C95.213 82.0158 94.2485 84.3445 94.2485 86.8216V107.457C94.2485 108.675 95.2356 109.662 96.4532 109.662C97.6707 109.662 98.6578 108.675 98.6578 107.457V86.8216C98.6578 85.5224 99.1637 84.3007 100.083 83.3818L105.985 77.479C106.012 77.7294 106.03 77.9813 106.03 78.2368V107.457C106.03 108.674 107.017 109.661 108.235 109.661C109.452 109.661 110.439 108.674 110.439 107.457V78.2371C110.439 73.6458 107.728 69.4741 103.532 67.6095ZM77.6014 71.3504L69.4058 63.1544C70.0289 62.1059 70.3808 60.8927 70.3808 59.6237V58.7266C72.604 59.6608 75.0435 60.1784 77.6017 60.1784C80.16 60.1784 82.5992 59.6611 84.8221 58.7269V59.6237C84.8221 60.893 85.1739 62.1059 85.7974 63.1547L77.6014 71.3504ZM77.6017 55.7688C69.7224 55.7691 63.3118 49.3586 63.3118 41.4792V40.4877C64.6875 39.9425 66.0303 39.0747 67.3158 37.8886C68.2103 37.0629 68.2664 35.6681 67.4404 34.7733C66.6147 33.8788 65.2202 33.8227 64.3251 34.6484C63.2225 35.6663 62.1208 36.3239 61.0514 36.6032C61.0255 36.6099 61.0064 36.6129 60.9929 36.614C60.977 36.5832 60.9555 36.5185 60.9555 36.4147V32.054C60.9555 24.1746 67.366 17.7641 75.2454 17.7641H79.9581C87.8377 17.7641 94.248 24.1746 94.248 32.054V32.5346C94.248 32.606 94.205 32.668 94.1486 32.6792C80.9469 35.2866 74.3254 30.3726 72.0913 28.1385C71.2303 27.2775 69.8343 27.2775 68.9737 28.1385C68.1127 28.9995 68.1127 30.3955 68.9737 31.2562C75.8198 38.1023 85.8098 38.2258 91.8916 37.495V41.4789C91.8916 49.3583 85.4811 55.7688 77.6017 55.7688Z" fill="#44ACDE"/>
        <path class="icon-people__line" d="M42.1043 55.6184V50.9049C42.1043 45.1534 39.1154 40.0904 34.6117 37.1767C34.8898 36.2846 35.035 35.3501 35.035 34.4103C35.035 29.2967 30.875 25.1367 25.7614 25.1367C20.6478 25.1367 16.4878 29.297 16.4878 34.4103C16.4878 35.3618 16.6319 36.2872 16.9105 37.1773C12.4072 40.0906 9.41857 45.1537 9.41857 50.9049V55.6175C9.41857 61.187 12.2208 66.1119 16.4875 69.0637V73.9119C16.4875 74.8681 15.9564 75.7276 15.1012 76.1553L7.47584 79.9679C4.3138 81.5494 2.34961 84.7276 2.34961 88.2629V107.458C2.34961 108.675 3.3367 109.662 4.55425 109.662C5.7718 109.662 6.75889 108.675 6.75889 107.458V89.2165L10.3504 92.808C11.269 93.7269 11.7752 94.9483 11.7752 96.2478V107.458C11.7752 108.675 12.7623 109.662 13.9798 109.662C15.1974 109.662 16.1845 108.675 16.1845 107.458V96.2478C16.1845 93.7707 15.2197 91.442 13.4683 89.6904L8.46969 84.6917C8.44559 84.6676 8.41972 84.6467 8.39503 84.6241C8.70867 84.3472 9.06053 84.1061 9.44796 83.9121L17.0734 80.0996C17.464 79.9041 17.8277 79.6734 18.1666 79.417L23.5568 84.8075V107.458C23.5568 108.676 24.5439 109.663 25.7614 109.663C26.979 109.663 27.9661 108.676 27.9661 107.458V84.8072L33.3566 79.4167C33.6958 79.6734 34.0591 79.9041 34.4498 80.0993L36.5524 81.1508C36.869 81.3092 37.2053 81.3842 37.5368 81.3842C38.3455 81.3842 39.1242 80.9374 39.5104 80.1651C40.0551 79.076 39.6136 77.7518 38.5245 77.2074L36.4219 76.1559C35.5665 75.7282 35.0353 74.8687 35.0353 73.9128V69.0646C39.302 66.1128 42.1043 61.1876 42.1043 55.6184ZM25.7614 29.546C28.4437 29.546 30.6257 31.7283 30.6257 34.4103C30.6257 34.7057 30.5993 34.9953 30.5487 35.2789C29.0337 34.8139 27.4267 34.562 25.7614 34.562C24.0985 34.562 22.4936 34.813 20.9809 35.2769C20.93 34.9932 20.8971 34.7052 20.8971 34.4103C20.8971 31.728 23.0791 29.546 25.7614 29.546ZM25.7614 38.9716C32.3415 38.9716 37.695 44.325 37.695 50.9051V51.7041C28.5163 54.5143 23.0462 47.532 22.8125 47.226C22.4289 46.7149 21.8425 46.395 21.2052 46.3498C20.5679 46.3051 19.9418 46.5382 19.49 46.99C17.3856 49.0944 15.3244 50.1094 13.8358 50.5994C13.9989 44.1601 19.2839 38.9716 25.7614 38.9716ZM25.7614 80.776L20.6669 75.6815C20.8157 75.113 20.8971 74.5204 20.8971 73.9122V71.2211C22.4342 71.7014 24.0683 71.9603 25.7614 71.9603C27.4546 71.9603 29.0887 71.7014 30.6257 71.2211V73.9122C30.6257 74.5204 30.7072 75.1133 30.8559 75.6815L25.7614 80.776ZM25.7614 67.5511C19.1813 67.5511 13.8278 62.1976 13.8278 55.6175V55.1607C15.586 54.7568 18.1927 53.8182 20.9121 51.6312C21.8742 52.5389 23.2493 53.6524 25.0004 54.6075C27.0716 55.7371 29.932 56.7821 33.4259 56.7821C34.7537 56.7821 36.1744 56.6278 37.6762 56.2733C37.3343 62.5498 32.1214 67.5511 25.7614 67.5511Z" fill="#44ACDE"/>
        <path class="icon-people__line" d="M147.727 75.2555L135.389 69.0863C134.534 68.6586 134.002 67.7991 134.002 66.8432V63.7188C136.891 61.1546 138.715 57.4179 138.715 53.2614V50.752C138.766 50.752 138.816 50.7534 138.867 50.7534C140.084 50.7534 141.071 49.7663 141.071 48.5488V43.8361C141.071 36.124 134.797 29.8496 127.085 29.8496H122.372C114.66 29.8496 108.386 36.124 108.386 43.8361V48.5488C108.386 49.7663 109.373 50.7534 110.59 50.7534C110.609 50.7534 110.662 50.7528 110.742 50.7496V53.2614C110.742 57.4182 112.567 61.1549 115.455 63.7191V66.8435C115.455 67.7997 114.924 68.6592 114.068 69.0866C112.979 69.631 112.538 70.9553 113.083 72.0444C113.469 72.8169 114.247 73.2637 115.056 73.2637C115.387 73.2637 115.724 73.1887 116.04 73.0306C116.431 72.8351 116.795 72.6043 117.133 72.348L122.524 77.7385V107.458C122.524 108.676 123.511 109.663 124.729 109.663C125.946 109.663 126.933 108.676 126.933 107.458V77.7379L132.323 72.3474C132.663 72.6041 133.026 72.8348 133.417 73.03L145.355 78.9996L141.734 82.6208C139.983 84.3724 139.018 86.7011 139.018 89.1782V107.457C139.018 108.675 140.005 109.662 141.223 109.662C142.44 109.662 143.427 108.675 143.427 107.457V89.1782C143.427 87.879 143.933 86.6573 144.852 85.7384L148.282 82.3083C148.386 82.7072 148.443 83.1231 148.443 83.5499V107.457C148.443 108.675 149.431 109.662 150.648 109.662C151.866 109.662 152.853 108.675 152.853 107.457V83.5499C152.853 80.0149 150.889 76.8367 147.727 75.2555ZM112.795 45.8906V43.8358H112.795C112.795 38.555 117.091 34.2586 122.372 34.2586H127.085C132.366 34.2586 136.662 38.555 136.662 43.8358V46.2848C127.078 45.7677 121.295 42.0383 121.239 42.0016C120.866 41.7529 120.44 41.6312 120.017 41.6312C119.447 41.6312 118.883 41.8511 118.457 42.277C116.347 44.3864 114.281 45.4017 112.795 45.8906ZM124.729 73.707L119.634 68.6125C119.783 68.044 119.864 67.4514 119.864 66.8432V66.3737C121.38 66.9378 123.019 67.2477 124.729 67.2477C126.439 67.2477 128.077 66.9378 129.593 66.3737V66.8432C129.593 67.4514 129.674 68.044 129.823 68.6125L124.729 73.707ZM124.729 62.8387C119.448 62.8387 115.151 58.5426 115.151 53.2614V49.7072C116.695 49.0902 118.494 48.1093 120.325 46.5496C122.64 47.7542 127.484 49.8363 134.306 50.5241V53.2614C134.306 58.5423 130.009 62.8387 124.729 62.8387Z" fill="#44ACDE"/>
        <line x1="-2.61914" y1="110.5" x2="157.017" y2="110.5" stroke="#44ACDE" stroke-width="7"/>
    </symbol>

    <symbol id="icon-Readmission" viewBox="0 0 155 129">
        <path d="M58.6185 63.4722C58.3893 63.4722 58.1831 63.392 57.9999 63.2316C57.8395 63.0483 57.7593 62.8421 57.7593 62.613V58.7296H47.0713C46.8192 58.7296 46.613 58.6494 46.4527 58.489C46.2923 58.3286 46.2121 58.1224 46.2121 57.8704V54.6056C46.2121 54.2619 46.3381 53.9068 46.5901 53.5402L56.5908 39.9998C56.9116 39.6103 57.3354 39.4155 57.8624 39.4155H62.8799C63.1319 39.4155 63.3381 39.4957 63.4985 39.6561C63.6589 39.8165 63.7391 40.0227 63.7391 40.2747V53.609H66.7634C67.0383 53.609 67.2559 53.7006 67.4163 53.8839C67.5767 54.0443 67.6569 54.239 67.6569 54.4681V57.8704C67.6569 58.1224 67.5767 58.3286 67.4163 58.489C67.2559 58.6494 67.0497 58.7296 66.7977 58.7296H63.7391V62.613C63.7391 62.8421 63.6589 63.0483 63.4985 63.2316C63.3381 63.392 63.1319 63.4722 62.8799 63.4722H58.6185ZM57.8968 53.8495V45.739L52.1232 53.8495H57.8968Z" fill="#44ACDE"/>
        <path d="M77.9194 63.8159C75.7199 63.8159 73.8641 63.4836 72.352 62.8192C70.8398 62.1548 69.7057 61.2498 68.9497 60.1043C68.2165 58.9587 67.8499 57.6757 67.8499 56.2552C67.8499 55.0409 68.1478 53.9526 68.7435 52.9904C69.3621 52.0052 70.1754 51.2377 71.1835 50.6878C70.3816 50.1608 69.763 49.4964 69.3277 48.6945C68.9153 47.8926 68.7091 46.9762 68.7091 45.9452C68.7091 44.6393 69.0413 43.4708 69.7057 42.4398C70.3931 41.3859 71.4241 40.5611 72.7987 39.9654C74.1734 39.3697 75.8803 39.0719 77.9194 39.0719C80.9207 39.0719 83.1889 39.7019 84.724 40.962C86.2819 42.2221 87.0609 43.8717 87.0609 45.9108C87.0609 47.9957 86.259 49.5881 84.6552 50.6878C85.6862 51.1918 86.4996 51.9364 87.0953 52.9216C87.7139 53.9068 88.0232 55.0294 88.0232 56.2896C88.0232 57.71 87.6451 58.9931 86.8891 60.1386C86.133 61.2613 84.9874 62.1548 83.4524 62.8192C81.9403 63.4836 80.0959 63.8159 77.9194 63.8159ZM77.9194 48.9695C78.9274 48.9465 79.7522 48.6831 80.3938 48.179C81.0353 47.675 81.356 47.022 81.356 46.2201C81.356 45.3953 81.0353 44.7309 80.3938 44.2269C79.7522 43.7228 78.9274 43.4708 77.9194 43.4708C76.9113 43.4708 76.0865 43.7228 75.445 44.2269C74.8034 44.7309 74.4827 45.3953 74.4827 46.2201C74.4827 47.0449 74.8034 47.7093 75.445 48.2134C76.0865 48.7174 76.9113 48.9695 77.9194 48.9695ZM77.9194 59.4169C79.042 59.4169 79.9699 59.1305 80.7031 58.5578C81.4362 57.985 81.8028 57.2175 81.8028 56.2552C81.8028 55.2929 81.4362 54.5369 80.7031 53.987C79.9699 53.4142 79.042 53.1278 77.9194 53.1278C76.7967 53.1278 75.8574 53.4142 75.1013 53.987C74.3681 54.5369 74.0016 55.2929 74.0016 56.2552C74.0016 57.2175 74.3681 57.985 75.1013 58.5578C75.8574 59.1305 76.7967 59.4169 77.9194 59.4169Z" fill="#44ACDE"/>
        <path d="M91.5002 63.4722C91.3917 63.4722 91.2994 63.4396 91.2235 63.3745C91.1584 63.2986 91.1258 63.2063 91.1258 63.0978V52.2896C91.1258 52.1811 91.1584 52.0943 91.2235 52.0291C91.2994 51.9532 91.3917 51.9152 91.5002 51.9152H92.3141C92.4226 51.9152 92.5094 51.9532 92.5745 52.0291C92.6505 52.0943 92.6884 52.1811 92.6884 52.2896V56.0822C93.0031 55.6807 93.3721 55.3769 93.7953 55.1707C94.2185 54.9537 94.7448 54.8451 95.3742 54.8451C96.416 54.8451 97.2244 55.1815 97.7996 55.8543C98.3855 56.5163 98.6785 57.4007 98.6785 58.5076V63.0978C98.6785 63.2063 98.6406 63.2986 98.5646 63.3745C98.4995 63.4396 98.4127 63.4722 98.3042 63.4722H97.4903C97.3818 63.4722 97.2895 63.4396 97.2136 63.3745C97.1485 63.2986 97.1159 63.2063 97.1159 63.0978V58.589C97.1159 57.8185 96.926 57.2216 96.5462 56.7984C96.1772 56.3752 95.6401 56.1636 94.9347 56.1636C94.2511 56.1636 93.7031 56.3806 93.2907 56.8147C92.8892 57.2379 92.6884 57.8293 92.6884 58.589V63.0978C92.6884 63.2063 92.6505 63.2986 92.5745 63.3745C92.5094 63.4396 92.4226 63.4722 92.3141 63.4722H91.5002Z" fill="#44ACDE"/>
        <path d="M86.2497 93.1498C85.4307 93.3707 84.595 93.5677 83.7656 93.7382C81.5959 94.1802 80.1956 96.2977 80.6388 98.4676C80.6637 98.5915 80.6947 98.7093 80.7302 98.8278C81.3221 100.789 83.3227 102.013 85.3694 101.595C86.3593 101.393 87.3569 101.157 88.3348 100.894C90.4738 100.318 91.7404 98.1176 91.165 95.9786C90.5889 93.837 88.3886 92.5739 86.2497 93.1498Z" fill="#44ACDE"/>
        <path d="M58.2984 90.9174C57.5239 90.5728 56.7513 90.1997 56.0018 89.8077C54.0376 88.7836 51.6162 89.5447 50.5919 91.5087C50.0864 92.4746 50.0154 93.5525 50.3075 94.5197C50.6091 95.5173 51.2954 96.398 52.2909 96.9176C53.1856 97.3836 54.1052 97.8293 55.0277 98.2405C57.0493 99.1432 59.421 98.2369 60.3243 96.2155C61.2276 94.1923 60.3202 91.8223 58.2984 90.9174Z" fill="#44ACDE"/>
        <path d="M72.0873 94.4416C71.2439 94.3737 70.3883 94.2781 69.5485 94.1601C67.3555 93.8476 65.3264 95.3736 65.0149 97.5664C64.9303 98.1624 64.9821 98.7451 65.1449 99.2852C65.5819 100.733 66.8255 101.872 68.4225 102.1C69.4217 102.241 70.4387 102.354 71.4438 102.434C73.6519 102.613 75.5854 100.968 75.7631 98.7609C75.9406 96.5527 74.2959 94.6193 72.0873 94.4416Z" fill="#44ACDE"/>
        <path d="M99.1654 87.1682C98.4688 87.6475 97.7461 88.1129 97.0188 88.552C95.4159 89.5177 94.7317 91.4278 95.2477 93.1406C95.3426 93.4544 95.4783 93.7619 95.6551 94.0565C96.7974 95.9533 99.2622 96.5625 101.159 95.4206C102.024 94.899 102.883 94.3441 103.712 93.7746C105.535 92.519 105.997 90.0221 104.742 88.1986C103.487 86.3732 100.989 85.9128 99.1654 87.1682Z" fill="#44ACDE"/>
        <path d="M114.929 76.3241C113.133 75.0289 110.627 75.4353 109.331 77.2303C108.837 77.917 108.313 78.5983 107.777 79.2519C106.897 80.326 106.669 81.7183 107.041 82.9544C107.264 83.6902 107.699 84.3719 108.338 84.8956C110.051 86.2986 112.577 86.0467 113.98 84.3333C114.62 83.5532 115.245 82.7408 115.835 81.922C117.13 80.1258 116.725 77.6204 114.929 76.3241Z" fill="#44ACDE"/>
        <path d="M120.541 61.7185C118.416 61.0977 116.19 62.3186 115.57 64.4445C115.331 65.2587 115.066 66.0763 114.782 66.874C114.48 67.7135 114.475 68.589 114.716 69.382C115.07 70.5584 115.958 71.5558 117.201 72.0012C119.287 72.7489 121.581 71.6659 122.33 69.5819C122.67 68.6313 122.986 67.6581 123.268 66.6895C123.887 64.5648 122.667 62.3374 120.541 61.7185Z" fill="#44ACDE"/>
        <path d="M128.065 35.5924L122.795 37.2298C118.796 24.9739 110.375 14.9027 98.9776 8.78604C97.8304 8.16989 96.6666 7.60372 95.4886 7.08345C95.48 7.07938 95.4732 7.07599 95.4653 7.07079C95.416 7.04999 95.3642 7.03054 95.3163 7.00929C84.9251 2.4625 73.426 1.60058 62.403 4.58565C62.3164 4.6026 62.2298 4.61888 62.1444 4.64308C61.7763 4.74347 61.4048 4.85223 61.0382 4.96166C60.4366 5.14345 59.8313 5.33926 59.2375 5.54298C59.1672 5.56718 59.101 5.59725 59.0327 5.62438C49.1929 9.03294 40.8136 15.3174 34.8358 23.7141C34.8146 23.743 34.7906 23.7679 34.7705 23.7966C34.1862 24.6171 33.6203 25.468 33.0858 26.3263C33.0523 26.3812 33.0245 26.4384 32.9926 26.4952C32.4594 27.3598 31.9471 28.2444 31.4619 29.1465C26.5074 38.3798 24.6174 48.6964 25.9069 58.8871C25.9098 58.9103 25.9125 58.932 25.9145 58.9551C25.9166 58.9714 25.9202 58.9883 25.924 59.0053C26.2745 61.7276 26.8502 64.4411 27.6585 67.1214C29.7812 74.159 33.3232 80.4871 38.1854 85.9308C39.6603 87.5818 42.1954 87.7243 43.8473 86.2494C45.4984 84.774 45.6424 82.2383 44.1664 80.5877C41.7391 77.8715 39.7078 74.888 38.0818 71.6736C38.0644 71.6341 38.049 71.5936 38.03 71.5556C37.6477 70.7972 37.2843 70.0199 36.9479 69.2418C36.9461 69.2357 36.9441 69.2321 36.9413 69.2271C36.329 67.795 35.7952 66.3208 35.3376 64.8061C30.0822 47.3809 36.7844 29.1472 50.6929 18.9525C50.8987 18.8028 51.1042 18.6518 51.312 18.5066C54.8827 15.9882 58.9101 13.9912 63.3179 12.6622C67.7536 11.325 72.2394 10.7633 76.6326 10.8949C76.7036 10.8981 76.7726 10.9001 76.8429 10.9022C77.1111 10.9103 77.3783 10.9246 77.6451 10.9395C77.753 10.9451 77.8604 10.951 77.968 10.9578C91.6671 11.8147 104.3 19.4232 111.391 31.3764C111.395 31.3832 111.398 31.3909 111.402 31.3976C111.508 31.5751 111.61 31.7524 111.713 31.9319C111.726 31.9521 111.739 31.9699 111.751 31.9905C113.108 34.3698 114.249 36.916 115.137 39.6105L109.867 41.2489C108.404 41.7036 108.26 42.7566 109.544 43.5891L121.012 51.0172C122.298 51.8504 123.831 51.3733 124.418 49.9599L129.657 37.3386C130.242 35.9241 129.527 35.1379 128.065 35.5924Z" fill="#44ACDE"/>
        <line x1="-4.63672" y1="110.5" x2="155" y2="110.5" stroke="#44ACDE" stroke-width="7"/>
    </symbol>  

    <symbol id="icon-AvaregeAge" viewBox="0 0 155 129">
        <line x1="-2.61914" y1="110.431" x2="157.017" y2="110.431" stroke="#44ACDE" stroke-width="7"/>
        <path d="M113.752 14.5438C113.739 14.4854 113.703 14.4394 113.686 14.3843C113.657 14.2898 113.619 14.1986 113.573 14.1114C113.521 14.0112 113.458 13.9175 113.385 13.8303C113.327 13.758 113.263 13.6906 113.193 13.6282C113.108 13.5566 113.015 13.495 112.917 13.4432C112.834 13.3931 112.746 13.3503 112.655 13.315C112.545 13.2805 112.432 13.2575 112.318 13.246C112.248 13.2254 112.176 13.209 112.104 13.1975H103.617C103.183 7.33797 100.464 3.09766 96.9541 3.09766C93.4445 3.09766 90.7256 7.33797 90.2916 13.1975H86.7836C86.3497 7.33797 83.6307 3.09766 80.1211 3.09766C76.6115 3.09766 73.8926 7.33797 73.4586 13.1975H69.9506C69.5167 7.33797 66.7977 3.09766 63.2881 3.09766C59.7785 3.09766 57.0596 7.33797 56.6256 13.1975H53.1176C52.6836 7.33797 49.9647 3.09766 46.4551 3.09766C42.9455 3.09766 40.2265 7.33797 39.7926 13.1975H31.3054C30.3758 13.1975 29.6221 13.9512 29.6221 14.8808V102.412C29.6221 103.342 30.3758 104.096 31.3054 104.096H112.104C113.033 104.096 113.787 103.342 113.787 102.412V97.3626H128.937C129.442 97.3626 129.921 97.1349 130.24 96.7436C130.559 96.3516 130.686 95.8379 130.585 95.3423L113.752 14.5438ZM96.9541 6.46426C98.1698 6.46426 99.8662 9.04346 100.24 13.1975H93.6747C94.0421 9.04346 95.7385 6.46426 96.9541 6.46426ZM80.1211 6.46426C81.3368 6.46426 83.0332 9.04346 83.4072 13.1975H76.8416C77.209 9.04346 78.9055 6.46426 80.1211 6.46426ZM63.2881 6.46426C64.5037 6.46426 66.2002 9.04346 66.5742 13.1975H60.0086C60.376 9.04346 62.0725 6.46426 63.2881 6.46426ZM46.4551 6.46426C47.6707 6.46426 49.3672 9.04346 49.7411 13.1975H43.1756C43.543 9.04346 45.2395 6.46426 46.4551 6.46426ZM32.9887 16.5641H39.7926C40.2265 22.4236 42.9455 26.6639 46.4551 26.6639C47.3847 26.6639 48.1384 25.9102 48.1384 24.9806C48.1384 24.051 47.3847 23.2973 46.4551 23.2973C45.2395 23.2973 43.543 20.7181 43.169 16.5641H56.6256C57.0653 22.4236 59.7785 26.6639 63.2881 26.6639C64.2177 26.6639 64.9714 25.9102 64.9714 24.9806C64.9714 24.051 64.2177 23.2973 63.2881 23.2973C62.0725 23.2973 60.376 20.7181 60.0021 16.5641H73.4586C73.8983 22.4236 76.6115 26.6639 80.1211 26.6639C81.0507 26.6639 81.8044 25.9102 81.8044 24.9806C81.8044 24.051 81.0507 23.2973 80.1211 23.2973C78.9055 23.2973 77.209 20.7181 76.8351 16.5641H90.2916C90.7314 22.4236 93.4445 26.6639 96.9541 26.6639C97.8837 26.6639 98.6374 25.9102 98.6374 24.9806C98.6374 24.051 97.8837 23.2973 96.9541 23.2973C95.7385 23.2973 94.0421 20.7181 93.6681 16.5641H110.421V33.3971H32.9887V16.5641ZM110.421 100.729H32.9887V36.7637H110.421V100.729ZM113.787 93.996V31.2091L126.868 93.996H113.787Z" fill="#44ACDE"/>
        <path d="M66.6548 63.6963H59.9216C58.992 63.6963 58.2383 64.45 58.2383 65.3796V72.1128C58.2383 73.0424 58.992 73.7961 59.9216 73.7961H66.6548C67.5844 73.7961 68.3381 73.0424 68.3381 72.1128V65.3796C68.3381 64.45 67.5844 63.6963 66.6548 63.6963ZM64.9715 70.4295H61.6049V67.0629H64.9715V70.4295Z" fill="#44ACDE"/>
        <path d="M83.4878 63.6963H76.7546C75.825 63.6963 75.0713 64.45 75.0713 65.3796V72.1128C75.0713 73.0424 75.825 73.7961 76.7546 73.7961H83.4878C84.4174 73.7961 85.1711 73.0424 85.1711 72.1128V65.3796C85.1711 64.45 84.4174 63.6963 83.4878 63.6963ZM81.8045 70.4295H78.4379V67.0629H81.8045V70.4295Z" fill="#44ACDE"/>
        <path d="M49.8218 63.6963H43.0886C42.159 63.6963 41.4053 64.45 41.4053 65.3796V72.1128C41.4053 73.0424 42.159 73.7961 43.0886 73.7961H49.8218C50.7514 73.7961 51.5051 73.0424 51.5051 72.1128V65.3796C51.5051 64.45 50.7514 63.6963 49.8218 63.6963ZM48.1385 70.4295H44.7719V67.0629H48.1385V70.4295Z" fill="#44ACDE"/>
        <path d="M66.6548 80.5293H59.9216C58.992 80.5293 58.2383 81.283 58.2383 82.2126V88.9458C58.2383 89.8754 58.992 90.6291 59.9216 90.6291H66.6548C67.5844 90.6291 68.3381 89.8754 68.3381 88.9458V82.2126C68.3381 81.283 67.5844 80.5293 66.6548 80.5293ZM64.9715 87.2625H61.6049V83.8959H64.9715V87.2625Z" fill="#44ACDE"/>
        <path d="M83.4878 80.5293H76.7546C75.825 80.5293 75.0713 81.283 75.0713 82.2126V88.9458C75.0713 89.8754 75.825 90.6291 76.7546 90.6291H83.4878C84.4174 90.6291 85.1711 89.8754 85.1711 88.9458V82.2126C85.1711 81.283 84.4174 80.5293 83.4878 80.5293ZM81.8045 87.2625H78.4379V83.8959H81.8045V87.2625Z" fill="#44ACDE"/>
        <path d="M49.8218 80.5293H43.0886C42.159 80.5293 41.4053 81.283 41.4053 82.2126V88.9458C41.4053 89.8754 42.159 90.6291 43.0886 90.6291H49.8218C50.7514 90.6291 51.5051 89.8754 51.5051 88.9458V82.2126C51.5051 81.283 50.7514 80.5293 49.8218 80.5293ZM48.1385 87.2625H44.7719V83.8959H48.1385V87.2625Z" fill="#44ACDE"/>
        <path d="M66.6548 46.8633H59.9216C58.992 46.8633 58.2383 47.617 58.2383 48.5466V55.2798C58.2383 56.2094 58.992 56.9631 59.9216 56.9631H66.6548C67.5844 56.9631 68.3381 56.2094 68.3381 55.2798V48.5466C68.3381 47.617 67.5844 46.8633 66.6548 46.8633ZM64.9715 53.5965H61.6049V50.2299H64.9715V53.5965Z" fill="#44ACDE"/>
        <path d="M83.4878 46.8633H76.7546C75.825 46.8633 75.0713 47.617 75.0713 48.5466V55.2798C75.0713 56.2094 75.825 56.9631 76.7546 56.9631H83.4878C84.4174 56.9631 85.1711 56.2094 85.1711 55.2798V48.5466C85.1711 47.617 84.4174 46.8633 83.4878 46.8633ZM81.8045 53.5965H78.4379V50.2299H81.8045V53.5965Z" fill="#44ACDE"/>
        <path d="M100.321 63.6963H93.5876C92.658 63.6963 91.9043 64.45 91.9043 65.3796V72.1128C91.9043 73.0424 92.658 73.7961 93.5876 73.7961H100.321C101.25 73.7961 102.004 73.0424 102.004 72.1128V65.3796C102.004 64.45 101.25 63.6963 100.321 63.6963ZM98.6375 70.4295H95.2709V67.0629H98.6375V70.4295Z" fill="#44ACDE"/>
        <path d="M100.321 80.5293H93.5876C92.658 80.5293 91.9043 81.283 91.9043 82.2126V88.9458C91.9043 89.8754 92.658 90.6291 93.5876 90.6291H100.321C101.25 90.6291 102.004 89.8754 102.004 88.9458V82.2126C102.004 81.283 101.25 80.5293 100.321 80.5293ZM98.6375 87.2625H95.2709V83.8959H98.6375V87.2625Z" fill="#44ACDE"/>
        <path d="M100.321 46.8633H93.5876C92.658 46.8633 91.9043 47.617 91.9043 48.5466V55.2798C91.9043 56.2094 92.658 56.9631 93.5876 56.9631H100.321C101.25 56.9631 102.004 56.2094 102.004 55.2798V48.5466C102.004 47.617 101.25 46.8633 100.321 46.8633ZM98.6375 53.5965H95.2709V50.2299H98.6375V53.5965Z" fill="#44ACDE"/>
        <path d="M49.8218 46.8633H43.0886C42.159 46.8633 41.4053 47.617 41.4053 48.5466V55.2798C41.4053 56.2094 42.159 56.9631 43.0886 56.9631H49.8218C50.7514 56.9631 51.5051 56.2094 51.5051 55.2798V48.5466C51.5051 47.617 50.7514 46.8633 49.8218 46.8633ZM48.1385 53.5965H44.7719V50.2299H48.1385V53.5965Z" fill="#44ACDE"/>
    </symbol>    
    
    <symbol id="icon-AverageTimePermanence" viewBox="0 0 155 129">
        <line x1="-2.61914" y1="110.431" x2="157.017" y2="110.431" stroke="#44ACDE" stroke-width="7"/>
        <path d="M123.302 44.4888H120.546C119.011 44.4888 117.762 45.7373 117.762 47.2725V57.8093H113.63C113.059 56.6895 111.898 55.9195 110.559 55.9195H95.0068C94.1996 55.9195 93.5461 56.5731 93.5461 57.3802C93.5461 58.1867 94.1996 58.8409 95.0068 58.8409H110.558C110.848 58.8409 111.084 59.0768 111.084 59.3666V73.7933H77.6884V58.8409H88.1894C88.9966 58.8409 89.6501 58.1867 89.6501 57.3802C89.6501 56.5731 88.9966 55.9195 88.1894 55.9195H77.4168C76.8926 54.6825 75.667 53.8129 74.2413 53.8129H60.9078C59.0074 53.8129 57.4607 55.3596 57.4607 57.26V57.8093H56.1955C56.3119 57.4282 56.3758 57.0242 56.3758 56.6058V53.9415C56.3758 51.6668 54.5256 49.8166 52.2509 49.8166H45.0881V18.1049H53.2688V19.1944H51.0276C48.8951 19.1944 47.1605 20.929 47.1605 23.0614V37.234C47.1605 39.3665 48.8951 41.1011 51.0276 41.1011H53.2688V45.5029C53.2688 46.3101 53.9231 46.9636 54.7295 46.9636C55.5367 46.9636 56.191 46.3101 56.191 45.5029V41.1011H58.4322C60.5647 41.1011 62.2993 39.3665 62.2993 37.234C62.2993 35.5839 62.2993 24.7549 62.2993 23.0614C62.2993 20.929 60.5647 19.1944 58.4322 19.1944H56.191V18.1049H56.8422C57.6494 18.1049 58.3029 17.4514 58.3029 16.6443C58.3029 15.8371 57.6494 15.1836 56.8422 15.1836H56.1887C56.1697 14.3939 55.5245 13.7586 54.7303 13.7586C53.9353 13.7586 53.2909 14.3931 53.2711 15.1836H45.0889V13.2306C45.0889 11.3287 43.5415 9.78125 41.6395 9.78125H40.2138C38.3119 9.78125 36.7652 11.3287 36.7652 13.2306V49.8166H35.8972C35.478 49.8166 35.074 49.8805 34.6936 49.9969V47.2725C34.6936 45.7373 33.4444 44.4888 31.9099 44.4888H29.1528C27.6176 44.4888 26.3691 45.7373 26.3691 47.2725V72.5898C26.3691 74.796 28.1113 76.5983 30.2917 76.7048V77.9921C30.2917 80.2668 32.1419 82.117 34.4167 82.117H58.4657L68.7629 89.0333L59.1131 95.5144C58.6027 95.3828 58.0678 95.3128 57.517 95.3128C53.9832 95.3128 51.109 98.187 51.109 101.72C51.109 105.254 53.984 108.128 57.517 108.128C60.8447 108.128 63.5865 105.578 63.8946 102.329L76.2284 94.0461L88.5614 102.329C88.8695 105.578 91.6114 108.128 94.9391 108.128C98.4729 108.128 101.347 105.254 101.347 101.72C101.347 98.187 98.4721 95.3128 94.9391 95.3128C94.3882 95.3128 93.8534 95.3828 93.3429 95.5144L83.6932 89.0333L93.9904 82.117H118.039C120.314 82.117 122.164 80.2668 122.164 77.9921V76.7048C124.345 76.5983 126.087 74.796 126.087 72.5898V70.6703C126.087 69.8639 125.433 69.2096 124.626 69.2096C123.819 69.2096 123.166 69.8639 123.166 70.6703V72.5898C123.166 73.2539 122.625 73.7933 121.962 73.7933C119.066 73.7933 116.89 73.7933 114.006 73.7933V60.7307H121.962C122.625 60.7307 123.166 61.2701 123.166 61.9343V63.8537C123.166 64.6609 123.819 65.3144 124.626 65.3144C125.433 65.3144 126.087 64.6609 126.087 63.8537V47.2725C126.086 45.7373 124.838 44.4888 123.302 44.4888V44.4888ZM59.3779 37.234C59.3779 37.7468 58.945 38.1797 58.4322 38.1797H51.0276C50.5148 38.1797 50.0819 37.7468 50.0819 37.234V28.7467H59.3779V37.234ZM59.3779 23.0614V25.8254H50.0819V23.0614C50.0819 22.5487 50.5148 22.1158 51.0276 22.1158H58.4322C58.945 22.1158 59.3779 22.5487 59.3779 23.0614ZM60.3821 57.26C60.3821 56.9702 60.618 56.7343 60.9078 56.7343H74.2413C74.5311 56.7343 74.767 56.9702 74.767 57.26V73.7933H60.3821C60.3821 71.5003 60.3821 58.6142 60.3821 57.26ZM39.6866 13.2306C39.6866 12.94 39.9232 12.7034 40.2138 12.7034H41.6395C41.9301 12.7034 42.1667 12.94 42.1667 13.2306V49.8166H39.6866V13.2306ZM35.8964 52.738H52.2509C52.9143 52.738 53.4544 53.2781 53.4544 53.9415V56.6058C53.4544 57.2692 52.9143 57.8093 52.2509 57.8093H35.8964C35.233 57.8093 34.6928 57.2692 34.6928 56.6058V53.9415C34.6928 53.2781 35.233 52.738 35.8964 52.738ZM29.2905 47.4102H31.7714V57.8093H30.4941C30.1274 57.8093 29.6709 57.8717 29.2905 57.9881V47.4102ZM29.2905 72.5898V61.9335C29.2905 61.2701 29.8307 60.7307 30.4941 60.7307H33.2321H57.4615V73.7933C55.8661 73.7933 30.7748 73.7933 30.4941 73.7933C29.8307 73.7933 29.2905 73.2539 29.2905 72.5898V72.5898ZM63.706 82.117H68.155L73.6075 85.7794L71.383 87.2736L63.706 82.117ZM76.2277 84.0197L73.3953 82.117H79.06L76.2277 84.0197ZM57.5163 105.207C55.5945 105.207 54.0304 103.643 54.0304 101.721C54.0304 99.7983 55.5945 98.2342 57.5163 98.2342C59.422 98.2342 61.0029 99.7915 61.0029 101.721C61.0029 103.643 59.4387 105.207 57.5163 105.207V105.207ZM98.4249 101.721C98.4249 103.643 96.8608 105.207 94.9391 105.207C93.0166 105.207 91.4532 103.643 91.4532 101.721C91.4532 99.7831 93.0371 98.2342 94.9391 98.2342C96.8608 98.2342 98.4249 99.7983 98.4249 101.721V101.721ZM90.4854 97.1143C89.8852 97.6948 89.393 98.4122 89.0689 99.1517L78.8478 92.2871L81.0723 90.793L90.4854 97.1143ZM63.3864 99.1517C63.0654 98.4183 62.5785 97.7031 61.9706 97.1143C63.5371 96.0621 75.3938 88.099 77.0424 86.9921C77.0424 86.9921 84.3003 82.1178 84.3003 82.117H88.7501C88.458 82.3133 63.9464 98.7758 63.3864 99.1517V99.1517ZM119.242 76.7155V77.9928C119.242 78.6562 118.703 79.1956 118.039 79.1956C112.614 79.1956 37.3731 79.1956 34.4159 79.1956C33.7525 79.1956 33.2131 78.6562 33.2131 77.9928V76.7155H119.242ZM120.684 57.8093V47.4102H123.165V57.9881C122.8 57.877 122.345 57.8093 121.961 57.8093H120.684Z" fill="#44ACDE"/>
        <path d="M109.926 15.0759C110.236 15.0759 110.508 14.8506 110.57 14.5471C110.624 14.2838 110.504 14.006 110.277 13.8633C110.019 13.7015 109.676 13.7386 109.46 13.9534C109.053 14.3582 109.355 15.0759 109.926 15.0759Z" fill="#44ACDE"/>
        <path d="M112.328 17.2843C112.183 16.951 111.796 16.798 111.462 16.9426C111.129 17.0871 110.976 17.4745 111.121 17.8077C112.503 20.9944 112.904 24.4926 112.281 27.9241C111.644 31.4352 109.969 34.63 107.436 37.163C100.608 43.9901 89.4998 43.9902 82.6726 37.163C79.3653 33.8557 77.5439 29.4585 77.5439 24.7814C77.5439 20.1043 79.3653 15.7071 82.6725 12.3999C85.9282 9.14423 90.2563 7.32323 94.8595 7.27246C99.4551 7.22054 103.815 8.93877 107.136 12.1073C107.399 12.358 107.815 12.3483 108.066 12.0855C108.317 11.8227 108.307 11.4064 108.044 11.1556C104.473 7.7488 99.7869 5.90395 94.8449 5.95718C89.8959 6.01181 85.2427 7.96952 81.7424 11.4699C78.1868 15.0255 76.2285 19.753 76.2285 24.7814C76.2285 29.8099 78.1868 34.5374 81.7424 38.0931C85.298 41.6487 90.0255 43.6069 95.0539 43.6069C100.082 43.6069 104.81 41.6487 108.366 38.0931C111.089 35.3698 112.891 31.9346 113.576 28.159C114.245 24.4707 113.813 20.7103 112.328 17.2843Z" fill="#44ACDE"/>
        <path d="M95.0522 12.0499C88.0323 12.0499 82.3212 17.7611 82.3212 24.781C82.3212 31.8009 88.0323 37.512 95.0522 37.512C102.072 37.512 107.783 31.8009 107.783 24.781C107.783 17.761 102.072 12.0499 95.0522 12.0499ZM95.0522 36.4023C88.6442 36.4023 83.4309 31.189 83.4309 24.7809C83.4309 18.3729 88.6442 13.1595 95.0522 13.1595C101.46 13.1595 106.674 18.3729 106.674 24.7809C106.674 31.189 101.46 36.4023 95.0522 36.4023Z" fill="#44ACDE"/>
        <path d="M94.4822 19.0432C94.2388 19.0432 94.0415 19.2405 94.0415 19.4839V25.4902H90.0776C89.8343 25.4902 89.637 25.6875 89.637 25.9308C89.637 26.1742 89.8343 26.3715 90.0776 26.3715H94.4822C94.7255 26.3715 94.9228 26.1742 94.9228 25.9308V19.4839C94.9228 19.2405 94.7255 19.0432 94.4822 19.0432Z" fill="#44ACDE"/>
        <path d="M110.57 14.5471L111.227 14.6814L111.227 14.6813L110.57 14.5471ZM110.277 13.8633L110.633 13.296L110.633 13.2959L110.277 13.8633ZM109.46 13.9534L108.988 13.4782L108.988 13.4782L109.46 13.9534ZM112.328 17.2843L111.713 17.5507L111.713 17.5508L112.328 17.2843ZM111.462 16.9426L111.196 16.3279L111.196 16.3279L111.462 16.9426ZM111.121 17.8077L110.506 18.0743L110.506 18.0743L111.121 17.8077ZM112.281 27.9241L111.622 27.8045L111.622 27.8045L112.281 27.9241ZM94.8595 7.27246L94.8669 7.94241L94.8671 7.9424L94.8595 7.27246ZM107.136 12.1073L106.673 12.5921L106.673 12.5921L107.136 12.1073ZM108.044 11.1556L108.507 10.6709L108.506 10.6709L108.044 11.1556ZM94.8449 5.95718L94.8377 5.28722L94.8376 5.28723L94.8449 5.95718ZM81.7424 11.4699L82.2161 11.9436L82.2161 11.9436L81.7424 11.4699ZM81.7424 38.0931L81.2686 38.5668L81.2686 38.5668L81.7424 38.0931ZM108.366 38.0931L108.839 38.5668L108.839 38.5668L108.366 38.0931ZM113.576 28.159L112.916 28.0393L112.916 28.0393L113.576 28.159ZM94.0415 25.4902V26.1602H94.7115V25.4902H94.0415ZM109.926 15.7458C110.559 15.7458 111.102 15.2922 111.227 14.6814L109.914 14.4128C109.915 14.4072 109.917 14.4065 109.916 14.4079C109.914 14.409 109.917 14.4059 109.926 14.4059V15.7458ZM111.227 14.6813C111.337 14.1424 111.095 13.5861 110.633 13.296L109.921 14.4306C109.917 14.4283 109.915 14.4262 109.914 14.4252C109.913 14.4244 109.913 14.4243 109.914 14.4246C109.914 14.425 109.913 14.4246 109.913 14.423C109.913 14.4212 109.913 14.4177 109.914 14.4128L111.227 14.6813ZM110.633 13.2959C110.113 12.9692 109.426 13.0424 108.988 13.4782L109.933 14.4286C109.928 14.4335 109.924 14.4333 109.926 14.4331C109.928 14.4329 109.926 14.4338 109.921 14.4306L110.633 13.2959ZM108.988 13.4782C108.15 14.311 108.766 15.7458 109.926 15.7458V14.4059C109.925 14.4059 109.929 14.4059 109.934 14.4077C109.94 14.4095 109.944 14.4118 109.946 14.4137C109.949 14.4154 109.949 14.4161 109.948 14.415C109.947 14.4138 109.946 14.4115 109.945 14.4085C109.943 14.4055 109.943 14.4032 109.943 14.4021C109.943 14.4012 109.943 14.4027 109.942 14.4063C109.942 14.4102 109.94 14.4155 109.937 14.4209C109.935 14.4266 109.932 14.4292 109.933 14.4286L108.988 13.4782ZM112.942 17.0178C112.651 16.3449 111.869 16.0362 111.196 16.3279L111.729 17.5573C111.729 17.5573 111.729 17.5575 111.727 17.5577C111.726 17.558 111.725 17.5581 111.724 17.5581C111.722 17.5581 111.721 17.5577 111.72 17.5574C111.719 17.557 111.718 17.5563 111.716 17.5548C111.715 17.5541 111.714 17.5532 111.714 17.5522C111.713 17.5513 111.713 17.5507 111.713 17.5507L112.942 17.0178ZM111.196 16.3279C110.523 16.6197 110.214 17.4017 110.506 18.0743L111.735 17.5411C111.735 17.5411 111.736 17.5417 111.736 17.5428C111.736 17.5439 111.736 17.5451 111.736 17.5462C111.736 17.5483 111.736 17.5497 111.736 17.5505C111.735 17.5513 111.735 17.5526 111.733 17.5541C111.732 17.5549 111.732 17.5557 111.731 17.5564C111.73 17.557 111.729 17.5573 111.729 17.5573L111.196 16.3279ZM110.506 18.0743C111.835 21.139 112.222 24.5027 111.622 27.8045L112.941 28.0438C113.587 24.4825 113.171 20.8498 111.735 17.5411L110.506 18.0743ZM111.622 27.8045C111.01 31.1808 109.399 34.2522 106.962 36.6893L107.909 37.6368C110.538 35.0077 112.279 31.6895 112.941 28.0437L111.622 27.8045ZM106.962 36.6893C100.396 43.2547 89.7119 43.2548 83.1464 36.6893L82.1988 37.6368C89.2877 44.7256 100.821 44.7255 107.909 37.6368L106.962 36.6893ZM83.1464 36.6893C79.9647 33.5076 78.2139 29.2808 78.2139 24.7814H76.8739C76.8739 29.6362 78.7659 34.2038 82.1988 37.6368L83.1464 36.6893ZM78.2139 24.7814C78.2139 20.282 79.9647 16.0552 83.1463 12.8737L82.1988 11.9262C78.7659 15.359 76.8739 19.9266 76.8739 24.7814H78.2139ZM83.1463 12.8737C86.2782 9.74179 90.4389 7.99125 94.8669 7.94241L94.8521 6.60251C90.0738 6.65521 85.5783 8.54666 82.1988 11.9262L83.1463 12.8737ZM94.8671 7.9424C99.2878 7.89247 103.479 9.54428 106.673 12.5921L107.598 11.6226C104.151 8.33326 99.6223 6.54862 94.8519 6.60251L94.8671 7.9424ZM106.673 12.5921C107.204 13.0981 108.044 13.0786 108.551 12.5479L107.581 11.623C107.581 11.623 107.582 11.6225 107.582 11.6219C107.583 11.6212 107.584 11.6207 107.585 11.6202C107.587 11.6194 107.589 11.6192 107.59 11.6192C107.591 11.6191 107.592 11.6193 107.594 11.62C107.595 11.6204 107.596 11.6209 107.597 11.6215C107.598 11.6221 107.598 11.6226 107.598 11.6225L106.673 12.5921ZM108.551 12.5479C109.057 12.0175 109.037 11.1772 108.507 10.6709L107.581 11.6403C107.581 11.6403 107.581 11.6399 107.58 11.6389C107.58 11.638 107.579 11.637 107.579 11.636C107.578 11.6341 107.578 11.6326 107.578 11.6317C107.578 11.6309 107.578 11.6294 107.579 11.6275C107.579 11.6264 107.579 11.6254 107.58 11.6244C107.581 11.6235 107.581 11.623 107.581 11.623L108.551 12.5479ZM108.506 10.6709C104.809 7.14314 99.954 5.23212 94.8377 5.28722L94.8522 6.62713C99.6198 6.57578 104.138 8.35446 107.581 11.6403L108.506 10.6709ZM94.8376 5.28723C89.7134 5.34379 84.8927 7.37194 81.2686 10.9961L82.2161 11.9436C85.5926 8.56709 90.0785 6.67982 94.8523 6.62712L94.8376 5.28723ZM81.2686 10.9961C77.5874 14.6774 75.5585 19.5753 75.5585 24.7814H76.8985C76.8985 19.9306 78.7861 15.3736 82.2161 11.9436L81.2686 10.9961ZM75.5585 24.7814C75.5585 29.9876 77.5874 34.8855 81.2686 38.5668L82.2161 37.6193C78.7861 34.1892 76.8985 29.6322 76.8985 24.7814H75.5585ZM81.2686 38.5668C84.9499 42.2481 89.8478 44.2769 95.0539 44.2769V42.9369C90.2032 42.9369 85.6461 41.0493 82.2161 37.6193L81.2686 38.5668ZM95.0539 44.2769C100.26 44.2769 105.158 42.2481 108.839 38.5668L107.892 37.6193C104.462 41.0493 99.9047 42.9369 95.0539 42.9369V44.2769ZM108.839 38.5668C111.659 35.7475 113.525 32.1889 114.235 28.2786L112.916 28.0393C112.256 31.6803 110.519 34.9921 107.892 37.6193L108.839 38.5668ZM114.235 28.2786C114.928 24.4605 114.481 20.5657 112.942 17.0177L111.713 17.5508C113.146 20.8549 113.562 24.4808 112.916 28.0393L114.235 28.2786ZM95.0522 11.3799C87.6623 11.3799 81.6512 17.3911 81.6512 24.781H82.9912C82.9912 18.1311 88.4023 12.7199 95.0522 12.7199V11.3799ZM81.6512 24.781C81.6512 32.1709 87.6623 38.182 95.0522 38.182V36.842C88.4023 36.842 82.9912 31.4309 82.9912 24.781H81.6512ZM95.0522 38.182C102.442 38.182 108.453 32.1709 108.453 24.781H107.113C107.113 31.4309 101.702 36.842 95.0522 36.842V38.182ZM108.453 24.781C108.453 17.391 102.442 11.3799 95.0522 11.3799V12.7199C101.702 12.7199 107.113 18.131 107.113 24.781H108.453ZM95.0522 35.7323C89.0142 35.7323 84.1008 30.819 84.1008 24.7809H82.7609C82.7609 31.559 88.2741 37.0723 95.0522 37.0723V35.7323ZM84.1008 24.7809C84.1008 18.7429 89.0142 13.8295 95.0522 13.8295V12.4895C88.2741 12.4895 82.7609 18.0028 82.7609 24.7809H84.1008ZM95.0522 13.8295C101.09 13.8295 106.004 18.7429 106.004 24.7809H107.344C107.344 18.0028 101.83 12.4895 95.0522 12.4895V13.8295ZM106.004 24.7809C106.004 30.819 101.09 35.7323 95.0522 35.7323V37.0723C101.83 37.0723 107.344 31.559 107.344 24.7809H106.004ZM94.4822 18.3732C93.8688 18.3732 93.3715 18.8705 93.3715 19.4839H94.7115C94.7115 19.6105 94.6088 19.7132 94.4822 19.7132V18.3732ZM93.3715 19.4839V25.4902H94.7115V19.4839H93.3715ZM94.0415 24.8202H90.0776V26.1602H94.0415V24.8202ZM90.0776 24.8202C89.4642 24.8202 88.967 25.3174 88.967 25.9308H90.307C90.307 26.0575 90.2043 26.1602 90.0776 26.1602V24.8202ZM88.967 25.9308C88.967 26.5442 89.4642 27.0414 90.0776 27.0414V25.7015C90.2043 25.7015 90.307 25.8041 90.307 25.9308H88.967ZM90.0776 27.0414H94.4822V25.7015H90.0776V27.0414ZM94.4822 27.0414C95.0955 27.0414 95.5928 26.5442 95.5928 25.9308H94.2528C94.2528 25.8041 94.3555 25.7015 94.4822 25.7015V27.0414ZM95.5928 25.9308V19.4839H94.2528V25.9308H95.5928ZM95.5928 19.4839C95.5928 18.8705 95.0955 18.3732 94.4822 18.3732V19.7132C94.3555 19.7132 94.2528 19.6105 94.2528 19.4839H95.5928Z" fill="#44ACDE" mask="url(#path-3-outside-1)"/>
    </symbol>
 
    <symbol id="icon-MortalityRate" viewBox="0 0 155 129">
        <line x1="-2.61914" y1="110.431" x2="157.017" y2="110.431" stroke="#44ACDE" stroke-width="7"/>
        <path d="M121.537 96.3082H120.183C121.039 95.1116 121.544 93.6496 121.544 92.07V53.8582C121.544 53.0101 120.856 52.3227 120.009 52.3227C119.161 52.3227 118.473 53.0101 118.473 53.8582V92.07C118.473 94.4066 116.573 96.3082 114.235 96.3082H38.9691C36.6326 96.3082 34.7309 94.4066 34.7309 92.07V18.5145C34.7309 16.1772 36.6326 14.2755 38.9691 14.2755H114.235C116.573 14.2755 118.473 16.1772 118.473 18.5145V46.6952C118.473 47.5433 119.161 48.2299 120.009 48.2299C120.856 48.2299 121.544 47.5433 121.544 46.6952V18.5145C121.544 14.4842 118.265 11.206 114.235 11.206H109.677V10.7863C109.677 6.57929 106.254 3.15723 102.047 3.15723H51.157C46.9507 3.15723 43.5287 6.57929 43.5287 10.7863V11.206H38.9691C34.9396 11.206 31.6614 14.4842 31.6614 18.5145V92.07C31.6614 93.6496 32.1666 95.1116 33.0219 96.3082H31.6686C29.4767 96.3082 27.6934 98.0916 27.6934 100.283V103.956C27.6934 106.148 29.4767 107.931 31.6686 107.931H73.0211C73.8692 107.931 74.5558 107.244 74.5558 106.396C74.5558 105.548 73.8692 104.861 73.0211 104.861H31.6686C31.169 104.861 30.7629 104.455 30.7629 103.956V100.283C30.7629 99.7838 31.169 99.3778 31.6686 99.3778H121.537C122.035 99.3778 122.441 99.7838 122.441 100.283V103.956C122.441 104.455 122.035 104.861 121.537 104.861H80.1833C79.336 104.861 78.6486 105.548 78.6486 106.396C78.6486 107.244 79.336 107.931 80.1833 107.931H121.537C123.728 107.931 125.511 106.148 125.511 103.956V100.283C125.512 98.0916 123.728 96.3082 121.537 96.3082V96.3082ZM46.5982 10.7863C46.5982 8.27233 48.6438 6.22677 51.157 6.22677H102.047C104.561 6.22677 106.606 8.27233 106.606 10.7863V11.206H46.5982V10.7863Z" fill="#44ACDE"/>
        <path d="M115.129 77.3331V20.8839C115.129 19.0837 113.665 17.6201 111.865 17.6201H41.3392C39.5398 17.6201 38.0762 19.0837 38.0762 20.8839V77.3331C38.0762 79.1325 39.5398 80.5969 41.3392 80.5969H111.865C113.665 80.5969 115.129 79.1325 115.129 77.3331V77.3331ZM112.059 77.3331C112.059 77.4402 111.972 77.5265 111.865 77.5265H41.3392C41.2328 77.5265 41.1457 77.4402 41.1457 77.3331V20.8839C41.1457 20.7768 41.2328 20.6897 41.3392 20.6897H111.865C111.972 20.6897 112.059 20.7768 112.059 20.8839V77.3331Z" fill="#44ACDE"/>
        <path d="M40.4072 88.4526C40.4072 91.0673 42.5351 93.1944 45.1498 93.1944C47.7645 93.1944 49.8916 91.0673 49.8916 88.4526C49.8916 85.8379 47.7645 83.71 45.1498 83.71C42.5351 83.71 40.4072 85.8379 40.4072 88.4526V88.4526ZM46.8221 88.4526C46.8221 89.375 46.0715 90.1248 45.1498 90.1248C44.2274 90.1248 43.4768 89.375 43.4768 88.4526C43.4768 87.5301 44.2274 86.7803 45.1498 86.7803C46.0715 86.7803 46.8221 87.5301 46.8221 88.4526Z" fill="#44ACDE"/>
        <path d="M53.2363 88.4526C53.2363 91.0673 55.3634 93.1944 57.9781 93.1944C60.5936 93.1944 62.7207 91.0673 62.7207 88.4526C62.7207 85.8379 60.5936 83.71 57.9781 83.71C55.3634 83.71 53.2363 85.8379 53.2363 88.4526V88.4526ZM59.6504 88.4526C59.6504 89.375 58.9006 90.1248 57.9781 90.1248C57.0557 90.1248 56.3059 89.375 56.3059 88.4526C56.3059 87.5301 57.0557 86.7803 57.9781 86.7803C58.9006 86.7803 59.6504 87.5301 59.6504 88.4526Z" fill="#44ACDE"/>
        <path d="M102.811 86.918C101.963 86.918 101.276 87.6046 101.276 88.4527C101.276 89.3001 101.963 89.9875 102.811 89.9875H111.029C111.876 89.9875 112.563 89.3001 112.563 88.4527C112.563 87.6046 111.876 86.918 111.029 86.918H102.811Z" fill="#44ACDE"/>
        <path d="M106.156 24.0352H47.049C45.6381 24.0352 44.4902 25.1822 44.4902 26.5931V71.6242C44.4902 73.0351 45.6381 74.1822 47.049 74.1822H106.156C107.567 74.1822 108.714 73.0351 108.714 71.6242V26.5931C108.714 25.1822 107.567 24.0352 106.156 24.0352V24.0352ZM105.644 71.1127H47.5606V27.1047H105.644V71.1127Z" fill="#44ACDE"/>
        <path fill-rule="evenodd" clip-rule="evenodd" d="M76.6023 49.4221H73.0041L70.1216 36.9456C69.7515 35.3453 67.4613 35.3685 67.124 36.976L63.4453 54.5012L59.8834 43.5915C59.4294 42.2014 57.4645 42.1727 56.9761 43.5579L54.909 49.4221H51.2975C50.4493 49.4221 49.7627 50.1095 49.7627 50.9568C49.7627 51.8049 50.4493 52.4916 51.2975 52.4916H55.9945C56.6452 52.4916 57.2255 52.0815 57.4421 51.4676L58.3678 48.8417L62.3079 60.9113C62.7939 62.3981 64.9481 62.2822 65.2695 60.7498L68.6971 44.4205L70.2879 51.3022C70.4485 51.9984 71.068 52.4916 71.7827 52.4916H76.6023V49.4221ZM103.35 50.9999C103.351 50.9856 103.351 50.9712 103.351 50.9568C103.351 50.9424 103.351 50.9281 103.35 50.9138V50.9999Z" fill="#44ACDE"/>
        <rect x="76.6025" y="49.4248" width="30.1133" height="3.07421" fill="#44ACDE"/>
        <circle cx="113.696" cy="49.8293" r="9.08115" fill="white" stroke="#44ACDE" stroke-width="2.31473"/>
        <rect x="109.418" y="48.7842" width="8.5558" height="2.09115" fill="#44ACDE"/>
    </symbol>


    <symbol id="icon-ScoreSofa" viewBox="0 0 155 129">
        <line x1="-2.61914" y1="111.212" x2="157.017" y2="111.212" stroke="#44ACDE" stroke-width="7"/>
        <path d="M126.769 38.6096C126.769 38.608 126.769 38.6063 126.768 38.6046L121.225 25.9168C120.364 23.9496 117.561 23.9496 116.701 25.9168L111.158 38.6046C111.157 38.6063 111.157 38.608 111.156 38.6096C111.069 38.8115 111.024 39.0433 111.024 39.2459V100.065C111.024 104.028 114.248 107.252 118.212 107.252H119.715C123.677 107.252 126.902 104.028 126.902 100.065C126.902 97.3824 126.902 41.9236 126.902 39.2459C126.902 39.2342 126.9 39.2226 126.9 39.2109C126.895 39.0032 126.852 38.7989 126.769 38.6096V38.6096ZM116.073 35.3549H121.853L122.853 37.6448C120.038 37.6448 117.888 37.6448 115.072 37.6448L116.073 35.3549ZM118.963 28.7396L120.454 32.1519H117.471L118.963 28.7396ZM123.7 88.2061H120.564V40.847H123.7V88.2061ZM117.361 40.847V88.2061H114.227V40.847H117.361ZM114.227 91.4083H123.7V93.4872H114.227V91.4083ZM123.7 100.065C123.7 102.262 121.912 104.05 119.715 104.05H118.212C116.014 104.05 114.227 102.262 114.227 100.065V96.6894H123.7V100.065Z" fill="#44ACDE"/>
        <path d="M62.5572 39.1768H79.3878C80.2718 39.1768 80.9889 38.4605 80.9889 37.5757C80.9889 36.6909 80.2718 35.9746 79.3878 35.9746H62.5572C61.6732 35.9746 60.9561 36.6909 60.9561 37.5757C60.9561 38.4605 61.6732 39.1768 62.5572 39.1768Z" fill="#44ACDE"/>
        <path d="M59.4158 46.6059C59.4158 44.8014 57.9472 43.332 56.1418 43.332H52.0924C50.2878 43.332 48.8193 44.8014 48.8193 46.6059V50.6554C48.8193 52.4599 50.2878 53.9285 52.0924 53.9285H56.1418C57.9472 53.9285 59.4158 52.4599 59.4158 50.6554V46.6059ZM56.2136 50.6554C56.2136 50.6904 56.1769 50.7263 56.1418 50.7263H52.0924C52.0574 50.7263 52.0215 50.6904 52.0215 50.6554V46.6059C52.0215 46.5709 52.0574 46.5351 52.0924 46.5351H56.1418C56.1769 46.5351 56.2136 46.5709 56.2136 46.6059V50.6554Z" fill="#44ACDE"/>
        <path d="M62.5572 53.9288H89.152C90.036 53.9288 90.7531 53.2124 90.7531 52.3277C90.7531 51.4429 90.036 50.7266 89.152 50.7266H62.5572C61.6732 50.7266 60.9561 51.4429 60.9561 52.3277C60.9561 53.2124 61.6732 53.9288 62.5572 53.9288Z" fill="#44ACDE"/>
        <path d="M59.4158 61.3942C59.4158 59.5896 57.9472 58.1211 56.1418 58.1211H52.0924C50.2878 58.1211 48.8193 59.5896 48.8193 61.395V65.4436C48.8193 67.249 50.2878 68.7175 52.0924 68.7175H56.1418C57.9472 68.7175 59.4158 67.249 59.4158 65.4436V61.3942ZM56.2136 65.4436C56.2136 65.4786 56.1769 65.5145 56.1418 65.5145H52.0924C52.0574 65.5145 52.0215 65.4786 52.0215 65.4436V61.395C52.0215 61.3591 52.0574 61.3233 52.0924 61.3233H56.1418C56.1769 61.3233 56.2136 61.3591 56.2136 61.3942V65.4436Z" fill="#44ACDE"/>
        <path d="M62.5572 68.7177H89.152C90.036 68.7177 90.7531 68.0005 90.7531 67.1166C90.7531 66.2318 90.036 65.5146 89.152 65.5146H62.5572C61.6732 65.5146 60.9561 66.2318 60.9561 67.1166C60.9561 68.0005 61.6732 68.7177 62.5572 68.7177Z" fill="#44ACDE"/>
        <path d="M59.4158 76.1821C59.4158 74.3767 57.9472 72.9082 56.1418 72.9082H52.0924C50.2878 72.9082 48.8193 74.3767 48.8193 76.1821V80.2307C48.8193 82.0361 50.2878 83.5046 52.0924 83.5046H56.1418C57.9472 83.5046 59.4158 82.0361 59.4158 80.2307V76.1821ZM56.2136 80.2307C56.2136 80.2657 56.1769 80.3024 56.1418 80.3024H52.0924C52.0574 80.3024 52.0215 80.2657 52.0215 80.2307V76.1821C52.0215 76.1463 52.0574 76.1104 52.0924 76.1104H56.1418C56.1769 76.1104 56.2136 76.1463 56.2136 76.1821V80.2307Z" fill="#44ACDE"/>
        <path d="M62.5572 83.5049H89.152C90.036 83.5049 90.7531 82.7878 90.7531 81.9038C90.7531 81.0191 90.036 80.3027 89.152 80.3027H62.5572C61.6732 80.3027 60.9561 81.0191 60.9561 81.9038C60.9561 82.7878 61.6732 83.5049 62.5572 83.5049Z" fill="#44ACDE"/>
        <path d="M56.1418 87.6963H52.0924C50.2878 87.6963 48.8193 89.1648 48.8193 90.9702V95.0188C48.8193 96.8242 50.2878 98.2927 52.0924 98.2927H56.1418C57.9472 98.2927 59.4158 96.8242 59.4158 95.0188V90.9702C59.4158 89.1648 57.9472 87.6963 56.1418 87.6963ZM56.2136 95.0188C56.2136 95.0547 56.1769 95.0905 56.1418 95.0905H52.0924C52.0574 95.0905 52.0215 95.0547 52.0215 95.0188V90.9702C52.0215 90.9352 52.0574 90.8985 52.0924 90.8985H56.1418C56.1769 90.8985 56.2136 90.9352 56.2136 90.9702V95.0188Z" fill="#44ACDE"/>
        <path d="M62.5572 98.293H89.152C90.036 98.293 90.7531 97.5767 90.7531 96.6919C90.7531 95.8071 90.036 95.0908 89.152 95.0908H62.5572C61.6732 95.0908 60.9561 95.8071 60.9561 96.6919C60.9561 97.5767 61.6732 98.293 62.5572 98.293Z" fill="#44ACDE"/>
        <path d="M103.752 15.7762H84.5609V15.1941C84.5609 12.9134 82.7054 11.058 80.4247 11.058H75.7415V9.82464C75.7415 7.54391 73.8852 5.68848 71.6054 5.68848H70.337C68.0563 5.68848 66.2008 7.54391 66.2008 9.82464V11.058H61.5176C59.2369 11.058 57.3806 12.9134 57.3806 15.1941V15.7762H38.476C36.1953 15.7762 34.3398 17.6317 34.3398 19.9124V110.854C34.3398 113.135 36.1953 114.99 38.476 114.99H103.752C106.032 114.99 107.888 113.135 107.888 110.854V70.4003C107.888 69.5155 107.171 68.7992 106.286 68.7992C105.402 68.7992 104.685 69.5155 104.685 70.4003V110.853C104.685 111.359 104.258 111.788 103.752 111.788H38.476C37.9698 111.788 37.542 111.359 37.542 110.853V19.9124C37.542 19.4062 37.9698 18.9784 38.476 18.9784H58.242C58.9033 19.8365 59.8723 20.4044 60.9547 20.557V22.1139H43.4603C41.9259 22.1139 40.6775 23.3622 40.6775 24.8966V105.87C40.6775 107.404 41.9259 108.652 43.4603 108.652H67.2349C68.1196 108.652 68.836 107.935 68.836 107.051C68.836 106.166 68.1196 105.45 67.2349 105.45H43.8805V25.3161H60.9547V27.7252C60.9547 30.006 62.8102 31.8614 65.0909 31.8614H76.8514C79.1322 31.8614 80.9876 30.006 80.9876 27.7252V25.3161H98.3478V105.45H74.7075C73.8227 105.45 73.1064 106.166 73.1064 107.051C73.1064 107.936 73.8227 108.652 74.7075 108.652H98.7673C100.302 108.652 101.55 107.404 101.55 105.87V24.8966C101.55 23.3622 100.302 22.1139 98.7673 22.1139H80.9876V20.557C82.1009 20.4002 83.0582 19.8115 83.7003 18.9784H103.752C104.258 18.9784 104.685 19.4062 104.685 19.9124V62.9277C104.685 63.8124 105.402 64.5287 106.287 64.5287C107.171 64.5287 107.888 63.8124 107.888 62.9277V19.9124C107.888 17.6317 106.032 15.7762 103.752 15.7762V15.7762ZM69.403 9.82464C69.403 9.31846 69.8308 8.89067 70.337 8.89067H71.6054C72.1115 8.89067 72.5385 9.31846 72.5385 9.82464V11.058H69.403V9.82464ZM60.5836 15.1941C60.5836 14.688 61.0114 14.2602 61.5176 14.2602H80.4247C80.9309 14.2602 81.3587 14.688 81.3587 15.1941V16.4617C81.3587 16.6627 81.2853 16.8545 81.1777 17.0029C80.7833 17.5441 81.8874 17.3957 61.5176 17.3957C60.9864 17.3957 60.5836 16.9362 60.5836 16.4617V15.1941ZM77.7846 27.7252C77.7846 28.2314 77.3576 28.6592 76.8514 28.6592H65.0909C64.5847 28.6592 64.1569 28.2314 64.1569 27.7252V25.3161H77.7846V27.7252ZM64.1569 22.1139V20.5978H77.7846V22.1139H64.1569Z" fill="#44ACDE"/>
    </symbol>
    
    <symbol id="icon-MechanicalVentilation" viewBox="0 0 155 129">
        <line x1="-2.61914" y1="111.212" x2="157.017" y2="111.212" stroke="#44ACDE" stroke-width="7"/>
        <path d="M71.1636 66.5513V99.7352C71.1636 104.595 67.671 108.549 63.3782 108.549H45.1047C37.7396 108.549 31.8094 105.381 27.9551 99.3875C24.6853 94.3033 22.957 87.1873 22.957 78.8089C22.957 65.6584 27.0857 50.7266 34.0014 38.8668C41.9826 25.1796 52.4153 17.6416 63.3782 17.6416C67.671 17.6416 71.1636 21.5955 71.1636 26.4558V35.514C71.1636 37.1326 69.8513 38.4453 68.2323 38.4453C66.6134 38.4453 65.3011 37.1326 65.3011 35.514V26.4558C65.3011 24.7663 64.286 23.5041 63.3782 23.5041C51.5168 23.5041 43.0546 34.9793 39.0657 41.8197C32.7457 52.6586 28.8195 66.8318 28.8195 78.8089C28.8195 86.0606 30.2257 92.0799 32.8861 96.2171C35.6467 100.51 39.7578 102.687 45.1047 102.687H63.3782C64.2857 102.687 65.3011 101.425 65.3011 99.7355V66.5513C65.3011 64.9327 66.6134 63.6201 68.2323 63.6201C69.8513 63.6201 71.1636 64.9327 71.1636 66.5513ZM121.423 38.8668C113.442 25.1796 103.009 17.6416 92.0464 17.6416C87.7533 17.6416 84.261 21.5955 84.261 26.4558V35.6222C84.261 37.2408 85.5736 38.5534 87.1923 38.5534C88.8109 38.5534 90.1235 37.2408 90.1235 35.6222V26.4558C90.1235 24.7663 91.1386 23.5041 92.0464 23.5041C103.907 23.5041 112.37 34.9793 116.358 41.8197C122.678 52.6583 126.604 66.8315 126.604 78.8086C126.604 86.0603 125.198 92.0799 122.538 96.2168C119.777 100.51 115.666 102.687 110.319 102.687H92.0461C91.1383 102.687 90.1232 101.425 90.1232 99.7355V66.1178C90.1232 64.4991 88.8106 63.1865 87.192 63.1865C85.5733 63.1865 84.2607 64.4991 84.2607 66.1178V99.7352C84.2607 104.595 87.753 108.549 92.0461 108.549H110.319C117.684 108.549 123.614 105.381 127.469 99.3872C130.738 94.3027 132.467 87.1868 132.467 78.8083C132.467 65.6582 128.338 50.7266 121.423 38.8668ZM94.1241 74.4335C94.1241 76.0521 95.4367 77.3647 97.0554 77.3647C98.674 77.3647 99.9866 76.0521 99.9866 74.4335V65.8859L107.705 69.5576C109.166 70.2535 110.915 69.6321 111.611 68.1699C112.306 66.7081 111.685 64.9593 110.223 64.2638L98.82 58.8386L80.6433 39.3138V17.3795C80.6433 15.7609 79.3306 14.4482 77.712 14.4482C76.0931 14.4482 74.7808 15.7609 74.7808 17.3795V39.3135L56.6055 58.8374L45.2006 64.2635C43.7388 64.959 43.1173 66.7078 43.8129 68.1697C44.5088 69.6318 46.2573 70.2523 47.7191 69.5573L55.4371 65.8856V74.4332C55.4371 76.0518 56.7494 77.3644 58.3684 77.3644C59.9873 77.3644 61.2996 76.0518 61.2996 74.4332V62.3989L77.712 44.7686L94.1241 62.3983V74.4335Z" fill="#44ACDE"/>
    </symbol>

    <symbol id="icon-MechanicalVentilationDuration" viewBox="0 0 155 129">
        <line x1="-1.89941" y1="111.212" x2="157.737" y2="111.212" stroke="#44ACDE" stroke-width="7"/>
        <path d="M71.8833 66.5513V99.7352C71.8833 104.595 68.3907 108.549 64.0979 108.549H45.8244C38.4594 108.549 32.5292 105.381 28.6748 99.3875C25.405 94.3033 23.6768 87.1873 23.6768 78.8089C23.6768 65.6584 27.8054 50.7266 34.7211 38.8668C42.7024 25.1796 53.135 17.6416 64.0979 17.6416C68.3907 17.6416 71.8833 21.5955 71.8833 26.4558V35.514C71.8833 37.1326 70.571 38.4453 68.9521 38.4453C67.3331 38.4453 66.0208 37.1326 66.0208 35.514V26.4558C66.0208 24.7663 65.0057 23.5041 64.0979 23.5041C52.2366 23.5041 43.7743 34.9793 39.7855 41.8197C33.4654 52.6586 29.5393 66.8318 29.5393 78.8089C29.5393 86.0606 30.9454 92.0799 33.6058 96.2171C36.3665 100.51 40.4775 102.687 45.8244 102.687H64.0979C65.0054 102.687 66.0208 101.425 66.0208 99.7355V66.5513C66.0208 64.9327 67.3331 63.6201 68.9521 63.6201C70.571 63.6201 71.8833 64.9327 71.8833 66.5513ZM122.143 38.8668C114.161 25.1796 103.729 17.6416 92.7662 17.6416C88.473 17.6416 84.9807 21.5955 84.9807 26.4558V35.6222C84.9807 37.2408 86.2934 38.5534 87.912 38.5534C89.5306 38.5534 90.8433 37.2408 90.8433 35.6222V26.4558C90.8433 24.7663 91.8584 23.5041 92.7662 23.5041C104.627 23.5041 113.089 34.9793 117.078 41.8197C123.398 52.6583 127.324 66.8315 127.324 78.8086C127.324 86.0603 125.918 92.0799 123.258 96.2168C120.497 100.51 116.386 102.687 111.038 102.687H92.7659C91.8581 102.687 90.843 101.425 90.843 99.7355V66.1178C90.843 64.4991 89.5304 63.1865 87.9117 63.1865C86.2931 63.1865 84.9805 64.4991 84.9805 66.1178V99.7352C84.9805 104.595 88.4728 108.549 92.7659 108.549H111.038C118.404 108.549 124.334 105.381 128.188 99.3872C131.458 94.3027 133.186 87.1868 133.186 78.8083C133.187 65.6582 129.058 50.7266 122.143 38.8668ZM94.8438 74.4335C94.8438 76.0521 96.1565 77.3647 97.7751 77.3647C99.3937 77.3647 100.706 76.0521 100.706 74.4335V65.8859L108.424 69.5576C109.886 70.2535 111.635 69.6321 112.331 68.1699C113.026 66.7081 112.405 64.9593 110.943 64.2638L99.5397 58.8386L81.363 39.3138V17.3795C81.363 15.7609 80.0504 14.4482 78.4317 14.4482C76.8128 14.4482 75.5005 15.7609 75.5005 17.3795V39.3135L57.3252 58.8374L45.9203 64.2635C44.4585 64.959 43.8371 66.7078 44.5326 68.1697C45.2285 69.6318 46.977 70.2523 48.4388 69.5573L56.1568 65.8856V74.4332C56.1568 76.0518 57.4692 77.3644 59.0881 77.3644C60.707 77.3644 62.0193 76.0518 62.0193 74.4332V62.3989L78.4317 44.7686L94.8438 62.3983V74.4335Z" fill="#44ACDE"/>
        <g class="icon-clock">
            <circle cx="113.947" cy="101.111" r="25.4329" fill="white"/>
            <path d="M134.034 88.2383C134.453 88.2383 134.821 87.9339 134.904 87.5239C134.977 87.1683 134.815 86.793 134.508 86.6002C134.16 86.3816 133.697 86.4317 133.405 86.722C132.855 87.2688 133.262 88.2383 134.034 88.2383Z" fill="#44ACDE"/>
            <path d="M135.912 90.3018L135.912 90.3018C135.208 90.6069 134.885 91.4247 135.19 92.1281C137.018 96.3419 137.549 100.967 136.725 105.506C135.883 110.149 133.667 114.372 130.317 117.722C121.29 126.75 106.6 126.75 97.5724 117.722C93.1985 113.348 90.7906 107.535 90.7906 101.35C90.7906 95.1643 93.1985 89.3513 97.5723 84.9775C101.878 80.6718 107.6 78.2644 113.688 78.1972L113.688 78.1972C119.765 78.1286 125.529 80.4001 129.921 84.5903L129.921 84.5904C130.476 85.1196 131.355 85.0991 131.884 84.5442C132.413 83.9894 132.393 83.1107 131.838 82.5812L131.838 82.5812C126.92 77.8887 120.463 75.3472 113.657 75.4205L113.657 75.4205C106.841 75.4957 100.43 78.1929 95.6087 83.014C90.7117 87.911 88.0137 94.4244 88.0137 101.35C88.0137 108.275 90.7117 114.789 95.6087 119.686L95.9623 119.332L95.6087 119.686C100.506 124.583 107.019 127.281 113.945 127.281C120.87 127.281 127.384 124.583 132.281 119.686C136.031 115.935 138.514 111.203 139.457 106.002C140.379 100.922 139.785 95.7423 137.738 91.0231C137.433 90.3195 136.616 89.9967 135.912 90.3018Z" fill="#44ACDE" stroke="#44ACDE"/>
            <path d="M113.942 83.7296C104.226 83.7296 96.3223 91.6335 96.3223 101.35C96.3223 111.066 104.226 118.969 113.942 118.969C123.658 118.969 131.562 111.066 131.562 101.35C131.562 91.6334 123.658 83.7296 113.942 83.7296ZM113.942 116.627C105.519 116.627 98.6649 109.773 98.6649 101.349C98.6649 92.9259 105.519 86.072 113.942 86.072C122.366 86.072 129.22 92.9259 129.22 101.349C129.22 109.773 122.366 116.627 113.942 116.627Z" fill="#44ACDE" stroke="#44ACDE" stroke-width="0.843581"/>
            <path d="M113.171 93.2627C112.658 93.2627 112.241 93.6792 112.241 94.1929V101.972H107.221C106.707 101.972 106.291 102.388 106.291 102.902C106.291 103.416 106.707 103.832 107.221 103.832H113.171C113.685 103.832 114.102 103.416 114.102 102.902V94.1929C114.102 93.6792 113.685 93.2627 113.171 93.2627Z" fill="#44ACDE" stroke="#44ACDE" stroke-width="0.66999"/>
        </g>
    </symbol>    

    <symbol id="icon-UseRRT" viewBox="0 0 155 129">
        <line x1="0.719727" y1="110.5" x2="160.356" y2="110.5" stroke="#44ACDE" stroke-width="7"/>
        <path d="M136.926 32.7173C136.45 31.7469 135.278 31.3455 134.307 31.8221C133.336 32.2981 132.935 33.4711 133.411 34.4417C137.329 42.4273 138.152 50.6429 138.152 56.1287C138.152 63.542 136.613 77.5167 126.314 87.8158C123.025 91.1051 118.652 92.9166 114 92.9166C109.349 92.9166 104.975 91.1051 101.686 87.8158C98.3961 84.5265 96.5848 80.1532 96.5848 75.5013C96.5848 72.5356 97.324 69.6848 98.7101 67.1542C98.7508 67.0921 98.7866 67.0271 98.8197 66.9608C99.5902 65.596 100.547 64.3255 101.685 63.1871C102.366 62.5061 102.932 61.7631 103.383 60.9715C103.39 60.959 103.398 60.9472 103.405 60.9344C103.516 60.7371 103.622 60.5372 103.718 60.3339C105.748 61.5676 106.962 63.4541 107.56 64.6217C107.907 65.2985 108.593 65.6874 109.304 65.6874C109.604 65.6874 109.909 65.618 110.195 65.4718C111.157 64.979 111.537 63.7996 111.045 62.8373C109.54 59.8988 107.303 57.6608 104.649 56.3942C104.652 56.3057 104.656 56.2177 104.656 56.1287C104.656 55.6394 104.62 55.1581 104.552 54.6862C107.251 53.429 109.517 51.1795 111.045 48.1958C111.537 47.2335 111.157 46.0541 110.194 45.5613C109.232 45.0683 108.053 45.4491 107.56 46.4117C106.907 47.6879 105.54 49.7803 103.207 50.9856C103.118 50.8415 103.025 50.6993 102.928 50.5589C102.905 50.5249 102.881 50.4915 102.856 50.4592C102.513 49.9734 102.124 49.5086 101.685 49.0707C94.8952 42.2804 94.8952 31.232 101.685 24.4417C104.975 21.1524 109.348 19.3408 114 19.3408C118.651 19.3408 123.025 21.1524 126.314 24.442C127.153 25.2803 127.961 26.1731 128.716 27.096C129.401 27.9328 130.634 28.0557 131.471 27.3708C132.307 26.686 132.431 25.4528 131.746 24.6163C130.908 23.5932 130.012 22.6033 129.083 21.6736C120.766 13.3568 107.234 13.357 98.9174 21.6736C91.9 28.691 90.8038 39.4212 95.6283 47.5987L92.98 46.6729C90.1683 45.69 87.8074 43.7242 86.332 41.137L82.6762 34.7272C81.6377 32.9065 81.0891 30.8366 81.0891 28.7405V6.24885C81.0891 3.0629 78.6467 0.452174 75.5284 0.305495C73.912 0.229807 72.3837 0.800601 71.2175 1.91322C70.0679 3.01018 69.4083 4.5503 69.4083 6.13923V28.7408C69.4083 30.8366 68.8595 32.9068 67.8212 34.7275L64.166 41.1367C62.6903 43.7239 60.3291 45.69 57.5177 46.6727L54.8822 47.5937C56.8054 44.3451 57.8338 40.6299 57.8338 36.7557C57.8338 31.0582 55.615 25.7018 51.5863 21.6731C47.5576 17.6444 42.2013 15.4254 36.5038 15.4254C30.8063 15.4254 25.4496 17.6441 21.4212 21.6731C10.1243 32.9705 8.4375 48.1097 8.4375 56.1287C8.4375 63.0894 9.74482 76.3981 18.5006 87.323C19.1766 88.1665 20.4088 88.3025 21.2523 87.6263C22.0958 86.9503 22.2316 85.7182 21.5556 84.8746C13.548 74.8835 12.3524 62.5758 12.3524 56.1287C12.3524 48.7155 13.8902 34.7411 24.1895 24.4417C27.4788 21.1524 31.8521 19.3408 36.504 19.3408C41.1557 19.3408 45.5292 21.1524 48.8185 24.4417C52.1078 27.731 53.9194 32.1042 53.9194 36.7562C53.9194 41.4081 52.1081 45.7814 48.8185 49.0707C48.3811 49.5081 47.993 49.9719 47.6495 50.4566C47.6247 50.4887 47.6017 50.5218 47.579 50.5552C47.4812 50.6969 47.3869 50.8402 47.2972 50.9856C44.9641 49.7803 43.5973 47.6879 42.9438 46.4114C42.451 45.4491 41.2713 45.0689 40.3093 45.5613C39.347 46.0541 38.9665 47.2335 39.4593 48.1958C40.9871 51.1795 43.2533 53.429 45.9517 54.686C45.8836 55.1581 45.8486 55.6394 45.8486 56.1285C45.8486 56.2175 45.8528 56.3054 45.8549 56.3942C43.2009 57.6608 40.9639 59.8985 39.4593 62.8373C38.9665 63.7996 39.3473 64.979 40.3093 65.4718C40.5951 65.618 40.8997 65.6874 41.1998 65.6874C41.9113 65.6874 42.5972 65.2982 42.9438 64.6217C43.5417 63.4541 44.7564 61.5676 46.7859 60.3339C46.8877 60.5476 46.9991 60.7577 47.1171 60.965C47.1317 60.9913 47.1466 61.0177 47.1622 61.0433C47.6064 61.808 48.1582 62.5267 48.8182 63.1868C49.9562 64.3247 50.9125 65.5945 51.6826 66.9584C51.7166 67.026 51.7531 67.0923 51.7946 67.1557C53.18 69.6858 53.9188 72.5364 53.9188 75.5013C53.9188 80.153 52.1075 84.5265 48.818 87.8158C43.2645 93.3689 34.6363 94.5191 27.8361 90.6121C26.8987 90.0736 25.7023 90.3967 25.1636 91.3342C24.6251 92.2717 24.9485 93.4681 25.8857 94.0068C29.1894 95.9045 32.8444 96.8287 36.4771 96.8287C42.0055 96.8287 47.4819 94.6885 51.5861 90.5841C55.6148 86.5554 57.8335 81.199 57.8335 75.5015C57.8335 73.3408 57.5127 71.2296 56.8968 69.2207L57.1727 69.3071C58.8999 69.8482 60.0606 71.4277 60.0606 73.2377V105.148C60.0606 108.368 62.6804 110.988 65.9008 110.988C69.1212 110.988 71.7413 108.368 71.7413 105.148V73.2377C71.7413 66.2947 67.2898 60.2357 60.6642 58.1601L60.3419 58.0591L61.3718 57.6991C66.8443 55.7861 71.4399 51.9591 74.3119 46.9235L75.2483 45.2816L76.1845 46.923C79.0567 51.9591 83.6523 55.7861 89.1251 57.6991L90.1579 58.0601L89.8387 58.1601C83.2131 60.2355 78.7618 66.2947 78.7618 73.2377V105.148C78.7618 108.368 81.3817 110.988 84.6021 110.988C87.8225 110.988 90.4424 108.368 90.4424 105.148V73.2377C90.4424 71.4277 91.6027 69.8479 93.3303 69.3071L93.6061 69.2207C92.9902 71.2296 92.6694 73.3408 92.6694 75.5015C92.6694 81.199 94.8881 86.5557 98.9166 90.5841C103.076 94.7431 108.536 96.8222 113.999 96.8216C119.461 96.8211 124.924 94.742 129.082 90.5841C140.38 79.2873 142.066 64.1475 142.066 56.1287C142.066 50.2284 141.175 41.3773 136.926 32.7173ZM67.827 73.2377V105.148C67.827 106.209 66.9631 107.073 65.9013 107.073C64.8396 107.073 63.976 106.209 63.976 105.148V73.2377C63.976 69.7072 61.7124 66.6264 58.3432 65.571L54.7517 64.4461C53.9948 63.2017 53.1027 62.0301 52.0872 60.9446L54.1519 60.2229L59.4942 61.8962C64.4784 63.4572 67.827 68.0152 67.827 73.2377ZM79.5855 44.9835L77.288 40.9548C76.8709 40.224 76.0892 39.7701 75.2481 39.7704C74.4069 39.7707 73.6255 40.2245 73.2092 40.9551L70.9111 44.9838C68.5074 49.1988 64.6606 52.402 60.0799 54.0032L49.9356 57.5491C49.8252 57.0928 49.7628 56.6205 49.7628 56.1285C49.7628 55.0976 50.0073 54.1436 50.4899 53.2763L58.8094 50.3683C62.5126 49.0738 65.6226 46.4842 67.5665 43.0762L71.2217 36.6669C72.5964 34.2564 73.323 31.5157 73.323 28.7408V6.13923C73.323 5.60759 73.5349 5.11275 73.9196 4.74579C74.304 4.37909 74.8112 4.19118 75.3438 4.21597C76.3528 4.26347 77.1737 5.17538 77.1737 6.24885V28.7403C77.1737 31.5152 77.9003 34.2561 79.2752 36.6667L82.9307 43.0762C84.8738 46.484 87.9838 49.0738 91.6878 50.3683L100.015 53.2789C100.497 54.1457 100.74 55.0986 100.74 56.1285C100.74 56.6212 100.678 57.0944 100.567 57.5512L90.417 54.0035C85.8366 52.4023 81.9898 49.1991 79.5855 44.9835ZM92.1602 65.571C88.7913 66.6264 86.5277 69.7072 86.5277 73.2377V105.148C86.5277 106.209 85.6638 107.073 84.6023 107.073C83.5409 107.073 82.677 106.209 82.677 105.148V73.2377C82.677 68.0152 86.0256 63.4572 91.0095 61.8962L96.3486 60.224L98.4149 60.9462C97.4002 62.0311 96.5086 63.2022 95.752 64.4458L92.1602 65.571Z" fill="#44ACDE"/>
        <g class="icon-clock">
            <circle cx="113.947" cy="101.111" r="25.4329" fill="white"/>
            <path d="M134.034 88.2383C134.453 88.2383 134.821 87.9339 134.904 87.5239C134.977 87.1683 134.815 86.793 134.508 86.6002C134.16 86.3816 133.697 86.4317 133.405 86.722C132.855 87.2688 133.262 88.2383 134.034 88.2383Z" fill="#44ACDE"/>
            <path d="M135.912 90.3018L135.912 90.3018C135.208 90.6069 134.885 91.4247 135.19 92.1281C137.018 96.3419 137.549 100.967 136.725 105.506C135.883 110.149 133.667 114.372 130.317 117.722C121.29 126.75 106.6 126.75 97.5724 117.722C93.1985 113.348 90.7906 107.535 90.7906 101.35C90.7906 95.1643 93.1985 89.3513 97.5723 84.9775C101.878 80.6718 107.6 78.2644 113.688 78.1972L113.688 78.1972C119.765 78.1286 125.529 80.4001 129.921 84.5903L129.921 84.5904C130.476 85.1196 131.355 85.0991 131.884 84.5442C132.413 83.9894 132.393 83.1107 131.838 82.5812L131.838 82.5812C126.92 77.8887 120.463 75.3472 113.657 75.4205L113.657 75.4205C106.841 75.4957 100.43 78.1929 95.6087 83.014C90.7117 87.911 88.0137 94.4244 88.0137 101.35C88.0137 108.275 90.7117 114.789 95.6087 119.686L95.9623 119.332L95.6087 119.686C100.506 124.583 107.019 127.281 113.945 127.281C120.87 127.281 127.384 124.583 132.281 119.686C136.031 115.935 138.514 111.203 139.457 106.002C140.379 100.922 139.785 95.7423 137.738 91.0231C137.433 90.3195 136.616 89.9967 135.912 90.3018Z" fill="#44ACDE" stroke="#44ACDE"/>
            <path d="M113.942 83.7296C104.226 83.7296 96.3223 91.6335 96.3223 101.35C96.3223 111.066 104.226 118.969 113.942 118.969C123.658 118.969 131.562 111.066 131.562 101.35C131.562 91.6334 123.658 83.7296 113.942 83.7296ZM113.942 116.627C105.519 116.627 98.6649 109.773 98.6649 101.349C98.6649 92.9259 105.519 86.072 113.942 86.072C122.366 86.072 129.22 92.9259 129.22 101.349C129.22 109.773 122.366 116.627 113.942 116.627Z" fill="#44ACDE" stroke="#44ACDE" stroke-width="0.843581"/>
            <path d="M113.171 93.2627C112.658 93.2627 112.241 93.6792 112.241 94.1929V101.972H107.221C106.707 101.972 106.291 102.388 106.291 102.902C106.291 103.416 106.707 103.832 107.221 103.832H113.171C113.685 103.832 114.102 103.416 114.102 102.902V94.1929C114.102 93.6792 113.685 93.2627 113.171 93.2627Z" fill="#44ACDE" stroke="#44ACDE" stroke-width="0.66999"/>
        </g>
    </symbol>
    
    <!-- 
    ///////////////////////////////////////////////////////////
    Countries
    ///////////////////////////////////////////////////////////
    -->
    <symbol id="country-AU" viewBox="0 0 46 46">
        <path d="M45.5059 23C45.5059 35.7025 35.4322 46 23.0059 46C10.5795 46 0.505859 35.7025 0.505859 23C0.505859 23.0054 23.0059 0.00260547 23.0059 0C35.4322 0 45.5059 10.2975 45.5059 23Z" fill="#0052B4"/>
        <path d="M22.9453 23H23.0055C23.0055 22.9792 23.0055 22.9592 23.0055 22.9385C22.9855 22.9591 22.9654 22.9795 22.9453 23Z" fill="#F0F0F0"/>
        <path d="M23.0059 12.001C23.0059 7.95394 23.0059 5.30203 23.0059 0.000976562H23.0021C10.5774 0.00304297 0.505859 10.2996 0.505859 23.0009H12.245V16.2436L18.8554 23.0009H22.9457C22.9659 22.9804 22.9859 22.9599 23.0059 22.9393C23.0059 21.3898 23.0059 20.0072 23.0059 18.7584L16.3954 12.001H23.0059Z" fill="#F0F0F0"/>
        <path d="M11.8898 3C8.37075 5.04835 5.44522 8.03889 3.44141 11.6361V23H9.31101V9.00013V9.00004H23.0066C23.0066 7.10766 23.0066 5.30485 23.0066 3H11.8898Z" fill="#D80027"/>
        <path d="M23.0069 20.1715L15.013 12H12.2461C12.2461 12 12.2461 12 12.2461 12L23.0068 22.9999H23.0069C23.0069 22.9999 23.0069 21.0498 23.0069 20.1715Z" fill="#D80027"/>
        <path d="M14.0757 27L15.3105 29.6394L18.099 28.9806L16.8503 31.6132L19.0927 33.431L16.3007 34.0743L16.3085 37L14.0757 35.1696L11.8429 37L11.8507 34.0743L9.05859 33.431L11.3011 31.6132L10.0522 28.9806L12.8409 29.6394L14.0757 27Z" fill="#F0F0F0"/>
        <path d="M34.1921 32L34.8095 33.3197L36.2038 32.9903L35.5793 34.3066L36.7006 35.2155L35.3046 35.5371L35.3085 37L34.1921 36.0847L33.0757 37L33.0796 35.5371L31.6836 35.2155L32.8048 34.3066L32.1804 32.9903L33.5746 33.3197L34.1921 32Z" fill="#F0F0F0"/>
        <path d="M28.45 18L29.0673 19.3198L30.4616 18.9903L29.8372 20.3066L30.9585 21.2155L29.5625 21.5372L29.5663 23L28.45 22.0847L27.3336 23L27.3374 21.5372L25.9414 21.2155L27.0626 20.3066L26.4383 18.9903L27.8325 19.3198L28.45 18Z" fill="#F0F0F0"/>
        <path d="M34.1921 10L34.8095 11.3198L36.2038 10.9903L35.5794 12.3066L36.7006 13.2155L35.3046 13.5372L35.3085 15.0001L34.1921 14.0848L33.0757 15.0001L33.0796 13.5372L31.6836 13.2155L32.8047 12.3066L32.1804 10.9903L33.5746 11.3198L34.1921 10Z" fill="#F0F0F0"/>
        <path d="M39.2098 16L39.8271 17.3198L41.2214 16.9903L40.597 18.3066L41.7182 19.2155L40.3222 19.5372L40.3261 21L39.2098 20.0848L38.0934 21L38.0971 19.5372L36.7012 19.2155L37.8224 18.3066L37.198 16.9903L38.5922 17.3198L39.2098 16Z" fill="#F0F0F0"/>
        <path d="M35.6237 23L36.1093 24.5279H37.6809L36.4094 25.4722L36.8952 27L35.6237 26.0558L34.3522 27L34.8378 25.4722L33.5664 24.5279H35.138L35.6237 23Z" fill="#F0F0F0"/>
    </symbol>

    <symbol id="country-BE" viewBox="0 0 46 46">
        <path d="M31.4824 1.43058C28.9907 0.50609 26.2958 0 23.4824 0C20.669 0 17.9741 0.50609 15.4824 1.43058L13.4824 23L15.4824 44.5694C17.9741 45.494 20.669 46 23.4824 46C26.2958 46 28.9907 45.494 31.4824 44.5694L33.4824 23L31.4824 1.43058Z" fill="#FFDA44"/>
        <path d="M46.4825 23C46.4825 13.1109 40.2408 4.68031 31.4824 1.43066V44.5696C40.2408 41.3197 46.4825 32.8893 46.4825 23Z" fill="#D80027"/>
        <path d="M0.482422 23C0.482422 32.8893 6.72405 41.3197 15.4825 44.5695V1.43066C6.72405 4.68031 0.482422 13.1109 0.482422 23Z" fill="black"/>
    </symbol>

    <symbol id="country-BR" viewBox="0 0 46 46">
        <path d="M23.6992 46C36.4018 46 46.6992 35.7025 46.6992 23C46.6992 10.2975 36.4018 0 23.6992 0C10.9967 0 0.699219 10.2975 0.699219 23C0.699219 35.7025 10.9967 46 23.6992 46Z" fill="#6DA544"/>
        <path d="M23.6992 9L42.6992 23L23.6992 37L4.69922 23L23.6992 9Z" fill="#FFDA44"/>
        <path d="M23.6992 30.9999C28.1174 30.9999 31.6991 27.4182 31.6991 23C31.6991 18.5817 28.1174 15 23.6992 15C19.2809 15 15.6992 18.5817 15.6992 23C15.6992 27.4182 19.2809 30.9999 23.6992 30.9999Z" fill="#F0F0F0"/>
        <path d="M19.6986 22.5C18.3074 22.5 16.9649 22.7116 15.7012 23.1042C15.7571 27.4742 19.3153 31 23.6986 31C26.409 31 28.8028 29.6508 30.2499 27.5888C27.7741 24.4895 23.9646 22.5 19.6986 22.5Z" fill="#0052B4"/>
        <path d="M31.5508 24.5327C31.6471 24.0364 31.6992 23.5244 31.6992 23C31.6992 18.5816 28.1175 15 23.6992 15C20.4025 15 17.5724 16.9946 16.3477 19.8425C17.4303 19.6181 18.5512 19.5 19.6993 19.5C24.3457 19.4999 28.5492 21.4314 31.5508 24.5327Z" fill="#0052B4"/>
    </symbol>

    <symbol id="country-CO" viewBox="0 0 46 46">
        <path d="M0.458984 23C0.458984 10.2975 10.7565 0 23.459 0C36.1615 0 46.459 10.2975 46.459 23L23.459 25L0.458984 23Z" fill="#FFDA44"/>
        <path d="M3.53711 34.5C7.51404 41.3745 14.9463 46 23.4594 46C31.9726 46 39.4048 41.3745 43.3817 34.5L23.4594 33L3.53711 34.5Z" fill="#D80027"/>
        <path d="M43.3813 34.5C45.3383 31.117 46.459 27.1895 46.459 23H0.458984C0.458984 27.1895 1.5797 31.117 3.53667 34.5H43.3813Z" fill="#0052B4"/>       
    </symbol>

    <symbol id="country-FR" viewBox="0 0 46 46">
        <path d="M23.5273 46C36.2299 46 46.5273 35.7025 46.5273 23C46.5273 10.2975 36.2299 0 23.5273 0C10.8248 0 0.527344 10.2975 0.527344 23C0.527344 35.7025 10.8248 46 23.5273 46Z" fill="#F0F0F0"/>
        <path d="M46.5274 23.0001C46.5274 13.1109 40.2858 4.6804 31.5273 1.43066V44.5696C40.2858 41.3198 46.5274 32.8893 46.5274 23.0001Z" fill="#D80027"/>
        <path d="M0.527344 23.0001C0.527344 32.8893 6.76906 41.3198 15.5274 44.5695V1.43066C6.76906 4.6804 0.527344 13.1109 0.527344 23.0001Z" fill="#0052B4"/>
    </symbol>

    <symbol id="country-NL" viewBox="0 0 46 46">
        <path d="M23.0703 46C35.7729 46 46.0703 35.7025 46.0703 23C46.0703 10.2975 35.7729 0 23.0703 0C10.3678 0 0.0703125 10.2975 0.0703125 23C0.0703125 35.7025 10.3678 46 23.0703 46Z" fill="#F0F0F0"/>
        <path d="M23.0694 0C13.1802 0 4.74974 6.24162 1.5 15H44.6389C41.3891 6.24162 32.9586 0 23.0694 0Z" fill="#A2001D"/>
        <path d="M23.0694 46C32.9586 46 41.3891 39.7584 44.6388 31H1.5C4.74974 39.7584 13.1802 46 23.0694 46Z" fill="#0052B4"/>
    </symbol>

    <symbol id="country-NZ" viewBox="0 0 46 46">
        <path d="M45.916 23C45.916 35.7025 35.8423 46 23.416 46C10.9897 46 0.916016 35.7025 0.916016 23C0.916016 23.0055 23.416 0.00251562 23.416 0C35.8423 0 45.916 10.2975 45.916 23Z" fill="#0052B4"/>
        <path d="M23.3555 23H23.4157C23.4157 22.9794 23.4157 22.9592 23.4157 22.9385C23.3956 22.9591 23.3756 22.9795 23.3555 23Z" fill="#F0F0F0"/>
        <path d="M23.416 12C23.416 7.95297 23.416 5.30123 23.416 0H23.4122C10.9876 0.00215625 0.916016 10.2987 0.916016 23H12.6551V16.2428L19.2656 23H23.3559C23.3759 22.9795 23.3961 22.959 23.4161 22.9385C23.4161 21.3889 23.4161 20.0063 23.4161 18.7574L16.8056 12H23.416Z" fill="#F0F0F0"/>
        <path d="M12.3 3C8.78091 5.04835 5.85538 8.03889 3.85156 11.6361V23H9.72116V9.00022V9.00004H23.4168C23.4168 7.10766 23.4168 5.30485 23.4168 3H12.3Z" fill="#D80027"/>
        <path d="M23.417 20.1716L15.4231 12C15.4231 12 12.6562 12.0002 12.6562 12V12.0002L23.417 22.9999H23.417C23.417 22.9999 23.417 21.0497 23.417 20.1716Z" fill="#D80027"/>
        <path d="M39.8816 17.0664L40.3672 18.5943H41.9387L40.6673 19.5385L41.153 21.0663L39.8816 20.1222L38.6101 21.0663L39.0957 19.5385L37.8242 18.5943H39.3958L39.8816 17.0664Z" fill="#D80027"/>
        <path d="M34.2636 28.0664L34.9921 30.3583H37.3494L35.4422 31.7746L36.1708 34.0664L34.2636 32.6501L32.3563 34.0664L33.085 31.7746L31.1777 30.3583H33.5351L34.2636 28.0664Z" fill="#D80027"/>
        <path d="M34.4757 10.0664L35.0829 11.9764H37.0473L35.4579 13.1565L36.065 15.0664L34.4757 13.8859L32.8865 15.0664L33.4935 13.1565L31.9043 11.9764H33.8687L34.4757 10.0664Z" fill="#D80027"/>
        <path d="M29.0702 17L29.7987 19.2919H32.1561L30.2488 20.7082L30.9774 23L29.0702 21.5836L27.163 23L27.8916 20.7082L25.9844 19.2919H28.3417L29.0702 17Z" fill="#D80027"/>        
    </symbol>          

    <symbol id="country-PT" viewBox="0 0 46 46">
        <path d="M0.482422 23.0001C0.482422 32.8892 6.58836 41.3197 15.1562 44.5694L17.1128 23L15.1562 1.43066C6.58836 4.68049 0.482422 13.1109 0.482422 23.0001Z" fill="#6DA544"/>
        <path d="M45.4825 23C45.4825 10.2975 35.4088 0 22.9825 0C20.2303 0 17.5938 0.50609 15.1562 1.43058V44.5694C17.5938 45.494 20.2303 46 22.9825 46C35.4088 46 45.4825 35.7025 45.4825 23Z" fill="#D80027"/>
        <path d="M15.1561 30.9999C19.4783 30.9999 22.9822 27.4182 22.9822 23C22.9822 18.5817 19.4783 15 15.1561 15C10.8339 15 7.33008 18.5817 7.33008 23C7.33008 27.4182 10.8339 30.9999 15.1561 30.9999Z" fill="#FFDA44"/>
        <path d="M10.7539 19V24C10.7539 26.4852 12.7248 28.5 15.1561 28.5C17.5874 28.5 19.5583 26.4853 19.5583 24V19H10.7539Z" fill="#D80027"/>
        <path d="M15.1569 25.4999C14.3478 25.4999 13.6895 24.827 13.6895 23.9999V22H16.6242V24C16.6242 24.827 15.9659 25.4999 15.1569 25.4999Z" fill="#F0F0F0"/>  
    </symbol>

    <symbol id="country-UY" viewBox="0 0 46 46">
        <path d="M22.5703 46C34.9967 46 45.0703 35.7025 45.0703 23C45.0703 10.2975 34.9967 0 22.5703 0C10.1439 0 0.0703125 10.2975 0.0703125 23C0.0703125 35.7025 10.1439 46 22.5703 46Z" fill="#F0F0F0"/>
        <path d="M22.5703 17H44.2952C43.731 14.8605 42.8736 12.8443 41.7679 11H22.5703V17Z" fill="#338AF3"/>
        <path d="M8.56466 41H36.5765C38.6299 39.3282 40.3909 37.2976 41.7682 35H3.37305C4.75038 37.2975 6.51136 39.3282 8.56466 41Z" fill="#338AF3"/>
        <path d="M22.5703 0C22.5703 2.00001 22.5703 4.99998 22.5703 4.99998H36.5763C32.7328 1.87091 27.8656 0 22.5703 0Z" fill="#338AF3"/>
        <path d="M22.5703 17H44.2952C43.731 14.8605 42.8736 12.8443 41.7679 11H22.5703V17Z" fill="#338AF3"/>
        <path d="M0.0703125 23C0.0703125 25.076 0.341016 27.0869 0.84542 29H44.2953C44.7996 27.0869 45.0703 25.076 45.0703 23H0.0703125Z" fill="#338AF3"/>
        <path d="M19.6355 13.4603L16.8875 14.7816L18.3508 17.5021L15.3669 16.9186L14.9888 19.9998L12.9105 17.7336L10.8321 19.9998L10.454 16.9186L7.47016 17.5019L8.93336 14.7815L6.18555 13.4603L8.93345 12.1391L7.47016 9.41864L10.454 10.0021L10.8321 6.9209L12.9105 9.18712L14.9888 6.9209L15.3669 10.0021L18.3508 9.41864L16.8875 12.1392L19.6355 13.4603Z" fill="#FFDA44"/>        
    </symbol> 
</svg>


